<?xml version="1.0" encoding="UTF-8" standalone="no"?>
<svg
   width="500pt"
   height="500pt"
   version="1.1"
   viewBox="0 0 499.99999 500"
   id="svg1617"
   sodipodi:docname="gardener-with-garden-cart.svg"
   inkscape:version="1.2 (dc2aedaf03, 2022-05-15)"
   xmlns:inkscape="http://www.inkscape.org/namespaces/inkscape"
   xmlns:sodipodi="http://sodipodi.sourceforge.net/DTD/sodipodi-0.dtd"
   xmlns="http://www.w3.org/2000/svg"
   xmlns:svg="http://www.w3.org/2000/svg">
  <sodipodi:namedview
     id="namedview1619"
     pagecolor="#ffffff"
     bordercolor="#000000"
     borderopacity="0.25"
     inkscape:showpageshadow="2"
     inkscape:pageopacity="0.0"
     inkscape:pagecheckerboard="0"
     inkscape:deskcolor="#d1d1d1"
     inkscape:document-units="pt"
     showgrid="false"
     inkscape:zoom="0.49607143"
     inkscape:cx="465.65875"
     inkscape:cy="472.71418"
     inkscape:window-width="1366"
     inkscape:window-height="699"
     inkscape:window-x="0"
     inkscape:window-y="0"
     inkscape:window-maximized="1"
     inkscape:current-layer="g1615" />
  <defs
     id="defs1535">
    <symbol
       id="t"
       overflow="visible">
      <path
         d="m 18.766,-1.125 c -0.96875,0.5 -1.9805,0.875 -3.0312,1.125 -1.043,0.25781 -2.1367,0.39062 -3.2812,0.39062 -3.3984,0 -6.0898,-0.94531 -8.0781,-2.8438 -1.9922,-1.9062 -2.9844,-4.4844 -2.9844,-7.7344 0,-3.2578 0.99219,-5.8359 2.9844,-7.7344 1.9883,-1.9062 4.6797,-2.8594 8.0781,-2.8594 1.1445,0 2.2383,0.13281 3.2812,0.39062 1.0508,0.25 2.0625,0.625 3.0312,1.125 v 4.2188 c -0.98047,-0.65625 -1.9453,-1.1406 -2.8906,-1.4531 -0.94922,-0.3125 -1.9492,-0.46875 -3,-0.46875 -1.875,0 -3.3516,0.60547 -4.4219,1.8125 -1.0742,1.1992 -1.6094,2.8555 -1.6094,4.9688 0,2.1055 0.53516,3.7617 1.6094,4.9688 1.0703,1.1992 2.5469,1.7969 4.4219,1.7969 1.0508,0 2.0508,-0.14844 3,-0.45312 0.94531,-0.3125 1.9102,-0.80078 2.8906,-1.4688 z"
         id="path1475" />
    </symbol>
    <symbol
       id="d"
       overflow="visible">
      <path
         d="m 13.734,-11.141 c -0.4375,-0.19531 -0.87109,-0.34375 -1.2969,-0.4375 -0.41797,-0.10156 -0.83984,-0.15625 -1.2656,-0.15625 -1.2617,0 -2.2305,0.40625 -2.9062,1.2188 -0.67969,0.80469 -1.0156,1.9531 -1.0156,3.4531 v 7.0625 H 2.3591 v -15.312 h 4.8906 v 2.5156 c 0.625,-1 1.3438,-1.7266 2.1562,-2.1875 0.82031,-0.46875 1.8008,-0.70312 2.9375,-0.70312 0.16406,0 0.34375,0.01172 0.53125,0.03125 0.19531,0.01172 0.47656,0.03906 0.84375,0.07813 z"
         id="path1478" />
    </symbol>
    <symbol
       id="a"
       overflow="visible">
      <path
         d="m 17.641,-7.7031 v 1.4062 H 6.188 c 0.125,1.1484 0.53906,2.0078 1.25,2.5781 0.70703,0.57422 1.7031,0.85938 2.9844,0.85938 1.0312,0 2.082,-0.14844 3.1562,-0.45312 1.082,-0.3125 2.1914,-0.77344 3.3281,-1.3906 v 3.7656 c -1.1562,0.4375 -2.3125,0.76562 -3.4688,0.98438 -1.1562,0.22656 -2.3125,0.34375 -3.4688,0.34375 -2.7734,0 -4.9297,-0.70312 -6.4688,-2.1094 -1.5312,-1.4062 -2.2969,-3.3789 -2.2969,-5.9219 0,-2.5 0.75391,-4.4609 2.2656,-5.8906 1.5078,-1.4375 3.582,-2.1562 6.2188,-2.1562 2.4062,0 4.332,0.73047 5.7812,2.1875 1.4453,1.4492 2.1719,3.3828 2.1719,5.7969 z m -5.0312,-1.625 c 0,-0.92578 -0.27344,-1.6719 -0.8125,-2.2344 -0.54297,-0.57031 -1.25,-0.85938 -2.125,-0.85938 -0.94922,0 -1.7188,0.26562 -2.3125,0.79688 -0.5937,0.53126 -0.96484,1.2969 -1.1094,2.2969 z"
         id="path1481" />
    </symbol>
    <symbol
       id="f"
       overflow="visible">
      <path
         d="m 9.2188,-6.8906 c -1.0234,0 -1.793,0.17188 -2.3125,0.51562 -0.51172,0.34375 -0.76562,0.85547 -0.76562,1.5312 0,0.625 0.20703,1.1172 0.625,1.4688 0.41406,0.34375 0.98828,0.51562 1.7188,0.51562 0.92578,0 1.7031,-0.32812 2.3281,-0.98438 0.63281,-0.66406 0.95312,-1.4922 0.95312,-2.4844 v -0.5625 z m 7.4688,-1.8438 V 0 h -4.9219 v -2.2656 c -0.65625,0.92969 -1.3984,1.6055 -2.2188,2.0312 -0.82422,0.41406 -1.8242,0.625 -3,0.625 -1.5859,0 -2.8711,-0.45703 -3.8594,-1.375 -0.99219,-0.92578 -1.4844,-2.1289 -1.4844,-3.6094 0,-1.7891 0.61328,-3.1016 1.8438,-3.9375 1.2383,-0.84375 3.1797,-1.2656 5.8281,-1.2656 h 2.8906 v -0.39062 c 0,-0.76953 -0.30859,-1.332 -0.92188,-1.6875 -0.61719,-0.36328 -1.5703,-0.54688 -2.8594,-0.54688 -1.0547,0 -2.0312,0.10547 -2.9375,0.3125 -0.89844,0.21094 -1.7305,0.52344 -2.5,0.9375 v -3.7344 c 1.0391,-0.25 2.0859,-0.44141 3.1406,-0.57812 1.0625,-0.13281 2.125,-0.20312 3.1875,-0.20312 2.7578,0 4.75,0.54688 5.9688,1.6406 1.2266,1.0859 1.8438,2.8555 1.8438,5.3125 z"
         id="path1484" />
    </symbol>
    <symbol
       id="c"
       overflow="visible">
      <path
         d="m 7.7031,-19.656 v 4.3438 H 12.75 v 3.5 H 7.7031 v 6.5 c 0,0.71094 0.14062,1.1875 0.42188,1.4375 0.28126,0.25 0.83594,0.375 1.6719,0.375 h 2.5156 v 3.5 h -4.1875 c -1.9375,0 -3.3125,-0.39844 -4.125,-1.2031 -0.80469,-0.8125 -1.2031,-2.1797 -1.2031,-4.1094 v -6.5 h -2.4219 v -3.5 h 2.4219 v -4.3438 z"
         id="path1487" />
    </symbol>
    <symbol
       id="e"
       overflow="visible">
      <path
         d="m 12.766,-13.078 v -8.2031 h 4.9219 V -1e-4 H 12.766 v -2.2188 c -0.66797,0.90625 -1.4062,1.5703 -2.2188,1.9844 -0.8126,0.4141 -1.7578,0.625 -2.8281,0.625 -1.8867,0 -3.4336,-0.75 -4.6406,-2.25 -1.2109,-1.5 -1.8125,-3.4258 -1.8125,-5.7812 0,-2.3633 0.60156,-4.2969 1.8125,-5.7969 1.207,-1.5 2.7539,-2.25 4.6406,-2.25 1.0625,0 2,0.21484 2.8125,0.64062 0.82031,0.42969 1.5664,1.0859 2.2344,1.9688 z m -3.2188,9.9219 c 1.0391,0 1.8359,-0.37891 2.3906,-1.1406 0.55078,-0.76953 0.82812,-1.8828 0.82812,-3.3438 0,-1.457 -0.27734,-2.5664 -0.82812,-3.3281 -0.55469,-0.76953 -1.3516,-1.1562 -2.3906,-1.1562 -1.043,0 -1.8398,0.38672 -2.3906,1.1562 -0.55469,0.76172 -0.82812,1.8711 -0.82812,3.3281 0,1.4609 0.27344,2.5742 0.82812,3.3438 0.55078,0.76172 1.3477,1.1406 2.3906,1.1406 z"
         id="path1490" />
    </symbol>
    <symbol
       id="j"
       overflow="visible">
      <path
         d="m 10.5,-3.1562 c 1.0508,0 1.8516,-0.37891 2.4062,-1.1406 0.55078,-0.76953 0.82812,-1.8828 0.82812,-3.3438 0,-1.457 -0.27734,-2.5664 -0.82812,-3.3281 -0.55469,-0.76953 -1.3555,-1.1562 -2.4062,-1.1562 -1.0547,0 -1.8594,0.38672 -2.4219,1.1562 -0.55469,0.77344 -0.82812,1.8828 -0.82812,3.3281 0,1.4492 0.27344,2.5586 0.82812,3.3281 0.5625,0.77344 1.3672,1.1562 2.4219,1.1562 z m -3.25,-9.9219 c 0.67578,-0.88281 1.4219,-1.5391 2.2344,-1.9688 0.82031,-0.42578 1.7656,-0.64062 2.8281,-0.64062 1.8945,0 3.4453,0.75 4.6562,2.25 1.207,1.5 1.8125,3.4336 1.8125,5.7969 0,2.3555 -0.60547,4.2812 -1.8125,5.7812 -1.2109,1.5 -2.7617,2.25 -4.6562,2.25 -1.0625,0 -2.0078,-0.21094 -2.8281,-0.625 C 8.6719,-0.6602 7.9258,-1.32032 7.25,-2.21882 V -2e-5 H 2.3594 v -21.281 H 7.25 Z"
         id="path1493" />
    </symbol>
    <symbol
       id="i"
       overflow="visible">
      <path
         d="m 0.34375,-15.312 h 4.8906 l 4.125,10.391 3.5,-10.391 h 4.8906 l -6.4375,16.766 c -0.64844,1.6953 -1.4023,2.8828 -2.2656,3.5625 -0.86719,0.6875 -2,1.0312 -3.4062,1.0312 H 2.79685 V 2.8289 h 1.5312 c 0.83203,0 1.4375,-0.13672 1.8125,-0.40625 C 6.52336,2.16093 6.82024,1.69218 7.03117,1.01645 L 7.17179,0.59457 Z"
         id="path1496" />
    </symbol>
    <symbol
       id="h"
       overflow="visible">
      <path
         d="m 10.047,-11.359 c 1.1016,0 1.8945,-0.20312 2.375,-0.60938 0.47656,-0.41406 0.71875,-1.0938 0.71875,-2.0312 0,-0.92578 -0.24219,-1.5859 -0.71875,-1.9844 -0.48047,-0.40625 -1.2734,-0.60938 -2.375,-0.60938 H 7.8282 v 5.2344 z M 7.8282,-7.7184 V 4e-4 h -5.25 v -20.406 h 8.0312 c 2.6875,0 4.6562,0.45312 5.9062,1.3594 1.2578,0.89844 1.8906,2.3203 1.8906,4.2656 0,1.3555 -0.32812,2.4648 -0.98438,3.3281 -0.64844,0.86719 -1.625,1.5 -2.9375,1.9062 0.71875,0.16797 1.3594,0.54297 1.9219,1.125 0.57031,0.57422 1.1484,1.4492 1.7344,2.625 l 2.8594,5.7969 h -5.6094 l -2.4844,-5.0781 c -0.5,-1.0195 -1.0117,-1.7109 -1.5312,-2.0781 -0.51172,-0.375 -1.1953,-0.5625 -2.0469,-0.5625 z"
         id="path1499" />
    </symbol>
    <symbol
       id="b"
       overflow="visible">
      <path
         d="m 9.6406,-12.188 c -1.0859,0 -1.9141,0.39062 -2.4844,1.1719 -0.57422,0.78125 -0.85938,1.9062 -0.85938,3.375 0,1.4688 0.28516,2.5938 0.85938,3.375 0.57031,0.77344 1.3984,1.1562 2.4844,1.1562 1.0625,0 1.875,-0.38281 2.4375,-1.1562 0.57031,-0.78125 0.85938,-1.9062 0.85938,-3.375 0,-1.4688 -0.28906,-2.5938 -0.85938,-3.375 -0.5625,-0.78125 -1.375,-1.1719 -2.4375,-1.1719 z m 0,-3.5 c 2.6328,0 4.6914,0.71484 6.1719,2.1406 1.4766,1.418 2.2188,3.3867 2.2188,5.9062 0,2.5117 -0.74219,4.4805 -2.2188,5.9062 C 14.332,-0.317 12.2734,0.39 9.6406,0.39 6.9922,0.39 4.9258,-0.31703 3.4375,-1.735 1.9453,-3.1608 1.2031,-5.1295 1.2031,-7.6412 c 0,-2.5195 0.74219,-4.4883 2.2344,-5.9062 1.4883,-1.4258 3.5547,-2.1406 6.2031,-2.1406 z"
         id="path1502" />
    </symbol>
    <symbol
       id="g"
       overflow="visible">
      <path
         d="M 17.75,-9.3281 V 0 h -4.9219 v -7.1406 c 0,-1.3203 -0.03125,-2.2344 -0.09375,-2.7344 -0.0625,-0.5 -0.16797,-0.86719 -0.3125,-1.1094 -0.1875,-0.3125 -0.44922,-0.55469 -0.78125,-0.73438 -0.32422,-0.17578 -0.69531,-0.26562 -1.1094,-0.26562 -1.0234,0 -1.8242,0.39844 -2.4062,1.1875 -0.58594,0.78125 -0.875,1.8711 -0.875,3.2656 V -1e-4 H 2.3594 v -15.312 H 7.25 v 2.2344 c 0.73828,-0.88281 1.5195,-1.5391 2.3438,-1.9688 0.83203,-0.42578 1.75,-0.64062 2.75,-0.64062 1.7695,0 3.1133,0.54688 4.0312,1.6406 0.91406,1.0859 1.375,2.6562 1.375,4.7188 z"
         id="path1505" />
    </symbol>
    <symbol
       id="s"
       overflow="visible">
      <path
         d="m 2.9688,-20.406 h 13.078 v 3.8594 h -8.875 v 3.1562 c 0.39453,-0.10156 0.79688,-0.1875 1.2031,-0.25 0.40622,-0.0625 0.82812,-0.09375 1.2656,-0.09375 2.4883,0 4.4258,0.625 5.8125,1.875 1.3828,1.2422 2.0781,2.9766 2.0781,5.2031 0,2.2109 -0.75781,3.9375 -2.2656,5.1875 -1.5117,1.2422 -3.6055,1.8594 -6.2812,1.8594 -1.1562,0 -2.3047,-0.11719 -3.4375,-0.34375 -1.1367,-0.21875 -2.2656,-0.55078 -3.3906,-1 v -4.1406 c 1.1133,0.63672 2.1719,1.1172 3.1719,1.4375 1,0.3125 1.9414,0.46875 2.8281,0.46875 1.2695,0 2.2695,-0.3125 3,-0.9375 0.73828,-0.625 1.1094,-1.4688 1.1094,-2.5312 0,-1.0703 -0.37109,-1.9141 -1.1094,-2.5312 -0.73047,-0.625 -1.7305,-0.9375 -3,-0.9375 -0.76172,0 -1.5742,0.10156 -2.4375,0.29688 -0.85547,0.1875 -1.7734,0.49219 -2.75,0.90625 z"
         id="path1508" />
    </symbol>
    <symbol
       id="r"
       overflow="visible">
      <path
         d="m 12.422,-21.281 v 3.2188 H 9.7189 c -0.6875,0 -1.1719,0.125 -1.4531,0.375 -0.27344,0.25 -0.40625,0.6875 -0.40625,1.3125 v 1.0625 h 4.1875 v 3.5 H 7.85955 V -2e-4 h -4.8906 v -11.812 h -2.4375 v -3.5 h 2.4375 v -1.0625 c 0,-1.6641 0.46094,-2.8984 1.3906,-3.7031 0.92578,-0.80078 2.3672,-1.2031 4.3281,-1.2031 z"
         id="path1511" />
    </symbol>
    <symbol
       id="q"
       overflow="visible">
      <path
         d="m 16.547,-12.766 c 0.61328,-0.94531 1.3477,-1.6719 2.2031,-2.1719 0.85156,-0.5 1.7891,-0.75 2.8125,-0.75 1.7578,0 3.0977,0.54688 4.0156,1.6406 0.92578,1.0859 1.3906,2.6562 1.3906,4.7188 V -4e-4 h -4.9219 v -7.9844 -0.35938 c 0.0078,-0.13281 0.01563,-0.32031 0.01563,-0.5625 0,-1.082 -0.16406,-1.8633 -0.48438,-2.3438 -0.3125,-0.48828 -0.82422,-0.73438 -1.5312,-0.73438 -0.92969,0 -1.6484,0.38672 -2.1562,1.1562 -0.51172,0.76172 -0.77344,1.8672 -0.78125,3.3125 v 7.5156 h -4.9219 v -7.9844 c 0,-1.6953 -0.14844,-2.7852 -0.4375,-3.2656 -0.29297,-0.48828 -0.8125,-0.73438 -1.5625,-0.73438 -0.9375,0 -1.6641,0.38672 -2.1719,1.1562 -0.51172,0.76172 -0.76562,1.8594 -0.76562,3.2969 v 7.5312 h -4.9219 v -15.312 h 4.9219 v 2.2344 c 0.60156,-0.86328 1.2891,-1.5156 2.0625,-1.9531 0.78125,-0.4375 1.6406,-0.65625 2.5781,-0.65625 1.0625,0 2,0.25781 2.8125,0.76562 0.8125,0.51172 1.4258,1.2305 1.8438,2.1562 z"
         id="path1514" />
    </symbol>
    <symbol
       id="p"
       overflow="visible">
      <path
         d="M 17.75,-9.3281 V 0 h -4.9219 v -7.1094 c 0,-1.3438 -0.03125,-2.2656 -0.09375,-2.7656 -0.0625,-0.5 -0.16797,-0.86719 -0.3125,-1.1094 -0.1875,-0.3125 -0.44922,-0.55469 -0.78125,-0.73438 -0.32422,-0.17578 -0.69531,-0.26562 -1.1094,-0.26562 -1.0234,0 -1.8242,0.39844 -2.4062,1.1875 -0.58594,0.78125 -0.875,1.8711 -0.875,3.2656 V -1e-4 H 2.3594 v -21.281 H 7.25 v 8.2031 c 0.73828,-0.88281 1.5195,-1.5391 2.3438,-1.9688 0.83203,-0.42578 1.75,-0.64062 2.75,-0.64062 1.7695,0 3.1133,0.54688 4.0312,1.6406 0.91406,1.0859 1.375,2.6562 1.375,4.7188 z"
         id="path1517" />
    </symbol>
    <symbol
       id="o"
       overflow="visible">
      <path
         d="m 2.5781,-20.406 h 5.875 l 7.4219,14 v -14 h 4.9844 V 0 h -5.875 L 7.5625,-14 V 0 H 2.5781 Z"
         id="path1520" />
    </symbol>
    <symbol
       id="n"
       overflow="visible">
      <path
         d="m 2.1875,-5.9688 v -9.3438 h 4.9219 v 1.5312 c 0,0.83594 -0.00781,1.875 -0.015625,3.125 -0.011719,1.25 -0.015625,2.0859 -0.015625,2.5 0,1.2422 0.03125,2.1328 0.09375,2.6719 0.070313,0.54297 0.17969,0.93359 0.32812,1.1719 0.20703,0.32422 0.47266,0.57422 0.79688,0.75 0.32031,0.16797 0.69141,0.25 1.1094,0.25 1.0195,0 1.8203,-0.39062 2.4062,-1.1719 0.58203,-0.78125 0.875,-1.8672 0.875,-3.2656 v -7.5625 h 4.8906 V -6e-4 H 12.6875 V -2.2194 C 11.94531,-1.32096 11.1641,-0.6608 10.3437,-0.235 9.51948,0.17906 8.6093,0.39 7.6093,0.39 5.8476,0.39 4.5038,-0.14906 3.5781,-1.235 2.64841,-2.317 2.1875,-3.8952 2.1875,-5.9694 Z"
         id="path1523" />
    </symbol>
    <symbol
       id="m"
       overflow="visible">
      <path
         d="m 2.5781,-20.406 h 8.7344 c 2.5938,0 4.582,0.57812 5.9688,1.7344 1.3945,1.1484 2.0938,2.7891 2.0938,4.9219 0,2.1367 -0.69922,3.7812 -2.0938,4.9375 -1.3867,1.1562 -3.375,1.7344 -5.9688,1.7344 H 7.8281 V 3e-4 h -5.25 z m 5.25,3.8125 v 5.7031 H 10.75 c 1.0195,0 1.8047,-0.25 2.3594,-0.75 0.5625,-0.5 0.84375,-1.2031 0.84375,-2.1094 0,-0.91406 -0.28125,-1.6172 -0.84375,-2.1094 -0.55469,-0.48828 -1.3398,-0.73438 -2.3594,-0.73438 z"
         id="path1526" />
    </symbol>
    <symbol
       id="l"
       overflow="visible">
      <path
         d="M 2.3594,-15.312 H 7.25 v 15.031 c 0,2.0508 -0.49609,3.6172 -1.4844,4.7031 -0.98047,1.082 -2.4062,1.625 -4.2812,1.625 H -0.9375 V 2.8283 h 0.85938 c 0.92578,0 1.5625,-0.21094 1.9062,-0.625 0.35156,-0.41797 0.53125,-1.2461 0.53125,-2.4844 z m 0,-5.9688 H 7.25 v 4 H 2.3594 Z"
         id="path1529" />
    </symbol>
    <symbol
       id="k"
       overflow="visible">
      <path
         d="m 14.719,-14.828 v 3.9844 c -0.65625,-0.45703 -1.3242,-0.79688 -2,-1.0156 -0.66797,-0.21875 -1.3594,-0.32812 -2.0781,-0.32812 -1.3672,0 -2.4336,0.40234 -3.2031,1.2031 -0.76172,0.79297 -1.1406,1.9062 -1.1406,3.3438 0,1.4297 0.37891,2.543 1.1406,3.3438 0.76953,0.79297 1.8359,1.1875 3.2031,1.1875 0.75781,0 1.4844,-0.10938 2.1719,-0.32812 0.6875,-0.22656 1.3203,-0.56641 1.9062,-1.0156 v 4 c -0.76172,0.28125 -1.5391,0.48828 -2.3281,0.625 -0.78125,0.14453 -1.5742,0.21875 -2.375,0.21875 -2.7617,0 -4.9219,-0.70703 -6.4844,-2.125 -1.5547,-1.4141 -2.3281,-3.3828 -2.3281,-5.9062 0,-2.5312 0.77344,-4.5039 2.3281,-5.9219 1.5625,-1.4141 3.7227,-2.125 6.4844,-2.125 0.80078,0 1.5938,0.07422 2.375,0.21875 0.78125,0.13672 1.5547,0.35156 2.3281,0.64062 z"
         id="path1532" />
    </symbol>
  </defs>
  <g
     id="g1615">
    <path
       d="m 76.455735,65.517878 c 0,22.218955 17.184234,40.517882 38.049705,40.517882 20.86547,0 38.04971,-18.298927 38.04971,-40.517882 C 152.55515,43.298924 135.37091,25 114.50544,25 93.639969,25 76.455735,43.298924 76.455735,65.517878 Z"
       id="path1537"
       style="stroke-width:1.13092;fill:#ffffff" />
    <path
       d="m 379.63473,430.1893 c -10.43274,0 -18.41278,8.49733 -18.41278,19.60716 0,11.10983 7.97971,19.60716 18.41278,19.60716 10.43274,0 18.41277,-8.49733 18.41277,-19.60716 0,-11.10983 -8.59189,-19.60716 -18.41277,-19.60716 z m 0,28.10426 c -4.29814,0 -7.97971,-3.9205 -7.97971,-8.49733 0,-4.57683 3.68168,-8.49733 7.97971,-8.49733 4.29814,0 7.97971,3.9205 7.97971,8.49733 -0.61646,4.57695 -3.68595,8.49733 -7.97971,8.49733 z"
       id="path1539"
       style="stroke-width:1.13092;fill:#ffffff" />
    <path
       d="m 273.46071,383.13492 c -21.48249,0 -39.27825,18.95012 -39.27825,41.82612 0,22.87599 17.79576,41.82611 39.27825,41.82611 21.48248,0 39.27825,-18.95012 39.27825,-41.82611 0.004,-23.52252 -17.18424,-41.82612 -39.27825,-41.82612 z m 0,59.47268 c -9.20409,0 -16.57161,-7.841 -16.57161,-18.29893 0,-9.80113 7.36335,-17.64656 17.18423,-17.64656 9.20409,0 16.57161,7.84099 16.57161,17.64656 0.004,10.45758 -7.97543,18.29893 -17.18423,18.29893 z"
       id="path1541"
       style="stroke-width:1.13092;fill:#ffffff" />
    <path
       d="m 485.19503,296.86857 -213.57549,28.75662 c -1.22865,0 -41.11942,-77.7716 -41.11942,-77.7716 -0.61218,-0.65188 -1.22865,-0.65188 -1.84084,-0.65188 l -12.89037,-1.96026 c 0.61218,-5.22885 -1.22865,-10.45758 -4.91033,-13.72652 L 128.62522,154.3957 c 2.45303,-20.25836 -11.66182,-38.55729 -30.686123,-41.17375 -17.184235,-1.96025 -33.755843,9.80113 -38.04971,28.09958 l -31.29876,133.97428 c -0.612178,2.61214 -1.228651,5.88074 -1.228651,9.14923 v 1.30834 L 0.35269825,453.05783 c -1.84083915,9.80113 3.68167855,19.60716 12.89036875,21.56659 9.204086,1.96026 18.412776,-3.92049 20.252848,-13.72652 0,-0.65189 0,-1.30835 0.612177,-1.96025 l 22.094016,-139.20253 1.228651,-6.53721 1.840839,6.53721 35.595915,139.20253 c 2.453028,9.80113 11.661827,15.03009 20.865467,12.41829 l 4.91033,-1.30835 c 9.20409,-2.61214 14.73044,-12.4183 12.27336,-21.56658 L 93.638424,300.129 c 1.228651,-1.96024 1.840839,-4.57694 2.453028,-7.18909 l 14.114518,-60.12503 57.69103,61.43327 c 6.75117,7.18909 17.18423,7.18909 23.93518,0 1.84084,-1.96026 3.06949,-3.9205 3.68168,-5.88075 l 12.89037,3.26859 63.82496,82.99987 0.61218,0.65189 129.49549,58.81563 c 4.91032,1.96025 9.82054,1.96025 11.04481,0 l 85.30745,-129.39954 c 4.30242,-5.88529 -2.44875,-9.1539 -13.49313,-7.84554 z M 213.92961,281.18261 c -0.61218,-0.65189 -1.22865,-0.65189 -1.84084,-0.65189 l -15.34307,-2.61215 c -0.61218,-3.2686 -2.45303,-6.53719 -4.91033,-9.14923 l -71.80884,-76.46686 0.61218,-3.2686 69.96438,66.00567 c 5.52252,5.22885 14.73044,5.22885 20.25285,0 l 14.73044,3.9205 44.80066,88.22929 1.22865,7.19365 z"
       id="path1543"
       style="stroke-width:1.13092;fill:#ffffff" />
    <path
       d="m 434.86977,271.38078 -3.68168,26.79602 -56.46249,7.841 -4.91033,-34.63725 h 30.68614 v -13.72653 l -12.89037,-10.45758 c -1.84084,0.65189 -4.29814,0.65189 -5.52252,-0.65188 l -11.66182,-9.14923 c -1.22865,-1.30835 -2.45303,-3.26861 -2.45303,-5.22885 0,-1.30835 0.61218,-2.61215 1.22865,-3.2686 1.84084,-2.61215 5.52252,-3.2686 7.97971,-1.30835 l 11.66183,9.14923 c 2.45302,1.96024 3.06949,5.22885 1.84083,7.84099 l 10.43274,8.49733 -0.004,-22.87132 c -3.06949,-0.65188 -4.91033,-3.2686 -4.91033,-6.5372 v -6.53719 c 0,-3.9205 3.06949,-7.18911 6.75117,-7.18911 3.68168,0 6.75117,3.26861 6.75117,7.18911 v 6.53719 c 0,3.2686 -2.45303,5.88075 -4.91033,6.5372 v 16.33833 l 6.75117,-4.57695 c -0.61218,-2.61215 0.61217,-5.22885 2.45302,-6.5372 l 12.89037,-7.841 c 2.45303,-1.30834 6.13898,-0.65188 7.36336,2.61215 1.22865,2.61215 0.61218,6.5372 -2.45303,7.841 l -12.88598,7.19364 c -0.61218,0.65189 -1.84084,0.65189 -2.45303,0.65189 -1.22865,0 -2.45303,-0.65189 -3.06949,-1.30834 l -9.20409,6.53719 v 20.25836 z"
       id="path1545"
       style="stroke-width:1.13092;fill:#ffffff" />
    <path
       d="m 353.24465,285.10497 -3.06949,24.17956 -41.11942,5.22884 -4.29814,-30.06485 h 22.70665 v -10.45757 l -9.82055,-7.84101 c -1.22865,0.65189 -3.06949,0.65189 -4.29814,-0.65188 l -8.5919,-6.5372 c -1.22865,-0.65189 -1.84084,-1.96024 -1.84084,-3.9205 0,-0.65188 0,-1.96025 0.61218,-2.61214 1.22865,-1.96025 4.29814,-2.61215 6.13898,-1.30835 l 8.59189,6.53719 c 1.84084,1.30835 2.45303,3.9205 1.22866,5.88075 l 7.97971,5.88075 v -16.33833 c -2.45303,-0.65188 -3.68168,-2.61214 -3.68168,-5.22884 v -4.57695 c 0.61217,-3.2686 3.06949,-5.22885 5.52251,-4.57695 2.45303,0 4.29815,1.96024 4.29815,4.57695 v 4.57695 c 0,2.61214 -1.84084,4.57694 -3.68168,5.22884 v 11.76126 l 4.91033,-3.26859 c -0.61218,-1.96026 0,-3.9205 1.84084,-5.22885 l 9.82054,-5.88075 c 1.84084,-1.30835 4.29815,0 5.52252,1.96025 1.22865,1.96024 0,4.57695 -1.84084,5.88075 l -9.82055,5.88074 c -0.61217,0.65189 -1.22865,0.65189 -1.84084,0.65189 -0.61218,0 -1.84083,-0.65189 -2.45302,-0.65189 l -4.91033,5.23796 v 15.03008 z"
       id="path1547"
       style="stroke-width:1.13092;fill:#ffffff" />
  </g>
</svg>
