<?xml version="1.0" encoding="UTF-8" standalone="no"?>
<svg
   width="500pt"
   height="500pt"
   version="1.1"
   viewBox="0 0 500 499.99999"
   id="svg1098"
   sodipodi:docname="irrigation.svg"
   inkscape:version="1.2 (dc2aedaf03, 2022-05-15)"
   xmlns:inkscape="http://www.inkscape.org/namespaces/inkscape"
   xmlns:sodipodi="http://sodipodi.sourceforge.net/DTD/sodipodi-0.dtd"
   xmlns="http://www.w3.org/2000/svg"
   xmlns:svg="http://www.w3.org/2000/svg">
  <sodipodi:namedview
     id="namedview1100"
     pagecolor="#ffffff"
     bordercolor="#000000"
     borderopacity="0.25"
     inkscape:showpageshadow="2"
     inkscape:pageopacity="0.0"
     inkscape:pagecheckerboard="0"
     inkscape:deskcolor="#d1d1d1"
     inkscape:document-units="pt"
     showgrid="false"
     inkscape:zoom="0.49607143"
     inkscape:cx="465.65875"
     inkscape:cy="472.71418"
     inkscape:window-width="1366"
     inkscape:window-height="699"
     inkscape:window-x="0"
     inkscape:window-y="0"
     inkscape:window-maximized="1"
     inkscape:current-layer="g1096" />
  <defs
     id="defs1006">
    <symbol
       id="t"
       overflow="visible">
      <path
         d="m 18.766,-1.125 c -0.96875,0.5 -1.9805,0.875 -3.0312,1.125 -1.043,0.25781 -2.1367,0.39062 -3.2812,0.39062 -3.3984,0 -6.0898,-0.94531 -8.0781,-2.8438 -1.9922,-1.9062 -2.9844,-4.4844 -2.9844,-7.7344 0,-3.2578 0.99219,-5.8359 2.9844,-7.7344 1.9883,-1.9062 4.6797,-2.8594 8.0781,-2.8594 1.1445,0 2.2383,0.13281 3.2812,0.39062 1.0508,0.25 2.0625,0.625 3.0312,1.125 v 4.2188 c -0.98047,-0.65625 -1.9453,-1.1406 -2.8906,-1.4531 -0.94922,-0.3125 -1.9492,-0.46875 -3,-0.46875 -1.875,0 -3.3516,0.60547 -4.4219,1.8125 -1.0742,1.1992 -1.6094,2.8555 -1.6094,4.9688 0,2.1055 0.53516,3.7617 1.6094,4.9688 1.0703,1.1992 2.5469,1.7969 4.4219,1.7969 1.0508,0 2.0508,-0.14844 3,-0.45312 0.94531,-0.3125 1.9102,-0.80078 2.8906,-1.4688 z"
         id="path946" />
    </symbol>
    <symbol
       id="d"
       overflow="visible">
      <path
         d="m 13.734,-11.141 c -0.4375,-0.19531 -0.87109,-0.34375 -1.2969,-0.4375 -0.41797,-0.10156 -0.83984,-0.15625 -1.2656,-0.15625 -1.2617,0 -2.2305,0.40625 -2.9062,1.2188 -0.67969,0.80469 -1.0156,1.9531 -1.0156,3.4531 v 7.0625 H 2.3591 v -15.312 h 4.8906 v 2.5156 c 0.625,-1 1.3438,-1.7266 2.1562,-2.1875 0.82031,-0.46875 1.8008,-0.70312 2.9375,-0.70312 0.16406,0 0.34375,0.01172 0.53125,0.03125 0.19531,0.01172 0.47656,0.03906 0.84375,0.07813 z"
         id="path949" />
    </symbol>
    <symbol
       id="a"
       overflow="visible">
      <path
         d="m 17.641,-7.7031 v 1.4062 H 6.188 c 0.125,1.1484 0.53906,2.0078 1.25,2.5781 0.70703,0.57422 1.7031,0.85938 2.9844,0.85938 1.0312,0 2.082,-0.14844 3.1562,-0.45312 1.082,-0.3125 2.1914,-0.77344 3.3281,-1.3906 v 3.7656 c -1.1562,0.4375 -2.3125,0.76562 -3.4688,0.98438 -1.1562,0.22656 -2.3125,0.34375 -3.4688,0.34375 -2.7734,0 -4.9297,-0.70312 -6.4688,-2.1094 -1.5312,-1.4062 -2.2969,-3.3789 -2.2969,-5.9219 0,-2.5 0.75391,-4.4609 2.2656,-5.8906 1.5078,-1.4375 3.582,-2.1562 6.2188,-2.1562 2.4062,0 4.332,0.73047 5.7812,2.1875 1.4453,1.4492 2.1719,3.3828 2.1719,5.7969 z m -5.0312,-1.625 c 0,-0.92578 -0.27344,-1.6719 -0.8125,-2.2344 -0.54297,-0.57031 -1.25,-0.85938 -2.125,-0.85938 -0.94922,0 -1.7188,0.26562 -2.3125,0.79688 -0.5937,0.53126 -0.96484,1.2969 -1.1094,2.2969 z"
         id="path952" />
    </symbol>
    <symbol
       id="f"
       overflow="visible">
      <path
         d="m 9.2188,-6.8906 c -1.0234,0 -1.793,0.17188 -2.3125,0.51562 -0.51172,0.34375 -0.76562,0.85547 -0.76562,1.5312 0,0.625 0.20703,1.1172 0.625,1.4688 0.41406,0.34375 0.98828,0.51562 1.7188,0.51562 0.92578,0 1.7031,-0.32812 2.3281,-0.98438 0.63281,-0.66406 0.95312,-1.4922 0.95312,-2.4844 v -0.5625 z m 7.4688,-1.8438 V 0 h -4.9219 v -2.2656 c -0.65625,0.92969 -1.3984,1.6055 -2.2188,2.0312 -0.82422,0.41406 -1.8242,0.625 -3,0.625 -1.5859,0 -2.8711,-0.45703 -3.8594,-1.375 -0.99219,-0.92578 -1.4844,-2.1289 -1.4844,-3.6094 0,-1.7891 0.61328,-3.1016 1.8438,-3.9375 1.2383,-0.84375 3.1797,-1.2656 5.8281,-1.2656 h 2.8906 v -0.39062 c 0,-0.76953 -0.30859,-1.332 -0.92188,-1.6875 -0.61719,-0.36328 -1.5703,-0.54688 -2.8594,-0.54688 -1.0547,0 -2.0312,0.10547 -2.9375,0.3125 -0.89844,0.21094 -1.7305,0.52344 -2.5,0.9375 v -3.7344 c 1.0391,-0.25 2.0859,-0.44141 3.1406,-0.57812 1.0625,-0.13281 2.125,-0.20312 3.1875,-0.20312 2.7578,0 4.75,0.54688 5.9688,1.6406 1.2266,1.0859 1.8438,2.8555 1.8438,5.3125 z"
         id="path955" />
    </symbol>
    <symbol
       id="c"
       overflow="visible">
      <path
         d="m 7.7031,-19.656 v 4.3438 H 12.75 v 3.5 H 7.7031 v 6.5 c 0,0.71094 0.14062,1.1875 0.42188,1.4375 0.28126,0.25 0.83594,0.375 1.6719,0.375 h 2.5156 v 3.5 h -4.1875 c -1.9375,0 -3.3125,-0.39844 -4.125,-1.2031 -0.80469,-0.8125 -1.2031,-2.1797 -1.2031,-4.1094 v -6.5 h -2.4219 v -3.5 h 2.4219 v -4.3438 z"
         id="path958" />
    </symbol>
    <symbol
       id="e"
       overflow="visible">
      <path
         d="m 12.766,-13.078 v -8.2031 h 4.9219 V -1e-4 H 12.766 v -2.2188 c -0.66797,0.90625 -1.4062,1.5703 -2.2188,1.9844 -0.8126,0.4141 -1.7578,0.625 -2.8281,0.625 -1.8867,0 -3.4336,-0.75 -4.6406,-2.25 -1.2109,-1.5 -1.8125,-3.4258 -1.8125,-5.7812 0,-2.3633 0.60156,-4.2969 1.8125,-5.7969 1.207,-1.5 2.7539,-2.25 4.6406,-2.25 1.0625,0 2,0.21484 2.8125,0.64062 0.82031,0.42969 1.5664,1.0859 2.2344,1.9688 z m -3.2188,9.9219 c 1.0391,0 1.8359,-0.37891 2.3906,-1.1406 0.55078,-0.76953 0.82812,-1.8828 0.82812,-3.3438 0,-1.457 -0.27734,-2.5664 -0.82812,-3.3281 -0.55469,-0.76953 -1.3516,-1.1562 -2.3906,-1.1562 -1.043,0 -1.8398,0.38672 -2.3906,1.1562 -0.55469,0.76172 -0.82812,1.8711 -0.82812,3.3281 0,1.4609 0.27344,2.5742 0.82812,3.3438 0.55078,0.76172 1.3477,1.1406 2.3906,1.1406 z"
         id="path961" />
    </symbol>
    <symbol
       id="j"
       overflow="visible">
      <path
         d="m 10.5,-3.1562 c 1.0508,0 1.8516,-0.37891 2.4062,-1.1406 0.55078,-0.76953 0.82812,-1.8828 0.82812,-3.3438 0,-1.457 -0.27734,-2.5664 -0.82812,-3.3281 -0.55469,-0.76953 -1.3555,-1.1562 -2.4062,-1.1562 -1.0547,0 -1.8594,0.38672 -2.4219,1.1562 -0.55469,0.77344 -0.82812,1.8828 -0.82812,3.3281 0,1.4492 0.27344,2.5586 0.82812,3.3281 0.5625,0.77344 1.3672,1.1562 2.4219,1.1562 z m -3.25,-9.9219 c 0.67578,-0.88281 1.4219,-1.5391 2.2344,-1.9688 0.82031,-0.42578 1.7656,-0.64062 2.8281,-0.64062 1.8945,0 3.4453,0.75 4.6562,2.25 1.207,1.5 1.8125,3.4336 1.8125,5.7969 0,2.3555 -0.60547,4.2812 -1.8125,5.7812 -1.2109,1.5 -2.7617,2.25 -4.6562,2.25 -1.0625,0 -2.0078,-0.21094 -2.8281,-0.625 C 8.6719,-0.6602 7.9258,-1.32032 7.25,-2.21882 V -2e-5 H 2.3594 v -21.281 H 7.25 Z"
         id="path964" />
    </symbol>
    <symbol
       id="i"
       overflow="visible">
      <path
         d="m 0.34375,-15.312 h 4.8906 l 4.125,10.391 3.5,-10.391 h 4.8906 l -6.4375,16.766 c -0.64844,1.6953 -1.4023,2.8828 -2.2656,3.5625 -0.86719,0.6875 -2,1.0312 -3.4062,1.0312 H 2.79685 V 2.8289 h 1.5312 c 0.83203,0 1.4375,-0.13672 1.8125,-0.40625 C 6.52336,2.16093 6.82024,1.69218 7.03117,1.01645 L 7.17179,0.59457 Z"
         id="path967" />
    </symbol>
    <symbol
       id="h"
       overflow="visible">
      <path
         d="m 10.047,-11.359 c 1.1016,0 1.8945,-0.20312 2.375,-0.60938 0.47656,-0.41406 0.71875,-1.0938 0.71875,-2.0312 0,-0.92578 -0.24219,-1.5859 -0.71875,-1.9844 -0.48047,-0.40625 -1.2734,-0.60938 -2.375,-0.60938 H 7.8282 v 5.2344 z M 7.8282,-7.7184 V 4e-4 h -5.25 v -20.406 h 8.0312 c 2.6875,0 4.6562,0.45312 5.9062,1.3594 1.2578,0.89844 1.8906,2.3203 1.8906,4.2656 0,1.3555 -0.32812,2.4648 -0.98438,3.3281 -0.64844,0.86719 -1.625,1.5 -2.9375,1.9062 0.71875,0.16797 1.3594,0.54297 1.9219,1.125 0.57031,0.57422 1.1484,1.4492 1.7344,2.625 l 2.8594,5.7969 h -5.6094 l -2.4844,-5.0781 c -0.5,-1.0195 -1.0117,-1.7109 -1.5312,-2.0781 -0.51172,-0.375 -1.1953,-0.5625 -2.0469,-0.5625 z"
         id="path970" />
    </symbol>
    <symbol
       id="b"
       overflow="visible">
      <path
         d="m 9.6406,-12.188 c -1.0859,0 -1.9141,0.39062 -2.4844,1.1719 -0.57422,0.78125 -0.85938,1.9062 -0.85938,3.375 0,1.4688 0.28516,2.5938 0.85938,3.375 0.57031,0.77344 1.3984,1.1562 2.4844,1.1562 1.0625,0 1.875,-0.38281 2.4375,-1.1562 0.57031,-0.78125 0.85938,-1.9062 0.85938,-3.375 0,-1.4688 -0.28906,-2.5938 -0.85938,-3.375 -0.5625,-0.78125 -1.375,-1.1719 -2.4375,-1.1719 z m 0,-3.5 c 2.6328,0 4.6914,0.71484 6.1719,2.1406 1.4766,1.418 2.2188,3.3867 2.2188,5.9062 0,2.5117 -0.74219,4.4805 -2.2188,5.9062 C 14.332,-0.317 12.2734,0.39 9.6406,0.39 6.9922,0.39 4.9258,-0.31703 3.4375,-1.735 1.9453,-3.1608 1.2031,-5.1295 1.2031,-7.6412 c 0,-2.5195 0.74219,-4.4883 2.2344,-5.9062 1.4883,-1.4258 3.5547,-2.1406 6.2031,-2.1406 z"
         id="path973" />
    </symbol>
    <symbol
       id="g"
       overflow="visible">
      <path
         d="M 17.75,-9.3281 V 0 h -4.9219 v -7.1406 c 0,-1.3203 -0.03125,-2.2344 -0.09375,-2.7344 -0.0625,-0.5 -0.16797,-0.86719 -0.3125,-1.1094 -0.1875,-0.3125 -0.44922,-0.55469 -0.78125,-0.73438 -0.32422,-0.17578 -0.69531,-0.26562 -1.1094,-0.26562 -1.0234,0 -1.8242,0.39844 -2.4062,1.1875 -0.58594,0.78125 -0.875,1.8711 -0.875,3.2656 V -1e-4 H 2.3594 v -15.312 H 7.25 v 2.2344 c 0.73828,-0.88281 1.5195,-1.5391 2.3438,-1.9688 0.83203,-0.42578 1.75,-0.64062 2.75,-0.64062 1.7695,0 3.1133,0.54688 4.0312,1.6406 0.91406,1.0859 1.375,2.6562 1.375,4.7188 z"
         id="path976" />
    </symbol>
    <symbol
       id="s"
       overflow="visible">
      <path
         d="m 2.9688,-20.406 h 13.078 v 3.8594 h -8.875 v 3.1562 c 0.39453,-0.10156 0.79688,-0.1875 1.2031,-0.25 0.40622,-0.0625 0.82812,-0.09375 1.2656,-0.09375 2.4883,0 4.4258,0.625 5.8125,1.875 1.3828,1.2422 2.0781,2.9766 2.0781,5.2031 0,2.2109 -0.75781,3.9375 -2.2656,5.1875 -1.5117,1.2422 -3.6055,1.8594 -6.2812,1.8594 -1.1562,0 -2.3047,-0.11719 -3.4375,-0.34375 -1.1367,-0.21875 -2.2656,-0.55078 -3.3906,-1 v -4.1406 c 1.1133,0.63672 2.1719,1.1172 3.1719,1.4375 1,0.3125 1.9414,0.46875 2.8281,0.46875 1.2695,0 2.2695,-0.3125 3,-0.9375 0.73828,-0.625 1.1094,-1.4688 1.1094,-2.5312 0,-1.0703 -0.37109,-1.9141 -1.1094,-2.5312 -0.73047,-0.625 -1.7305,-0.9375 -3,-0.9375 -0.76172,0 -1.5742,0.10156 -2.4375,0.29688 -0.85547,0.1875 -1.7734,0.49219 -2.75,0.90625 z"
         id="path979" />
    </symbol>
    <symbol
       id="r"
       overflow="visible">
      <path
         d="m 12.422,-21.281 v 3.2188 H 9.7189 c -0.6875,0 -1.1719,0.125 -1.4531,0.375 -0.27344,0.25 -0.40625,0.6875 -0.40625,1.3125 v 1.0625 h 4.1875 v 3.5 H 7.85955 V -2e-4 h -4.8906 v -11.812 h -2.4375 v -3.5 h 2.4375 v -1.0625 c 0,-1.6641 0.46094,-2.8984 1.3906,-3.7031 0.92578,-0.80078 2.3672,-1.2031 4.3281,-1.2031 z"
         id="path982" />
    </symbol>
    <symbol
       id="q"
       overflow="visible">
      <path
         d="m 16.547,-12.766 c 0.61328,-0.94531 1.3477,-1.6719 2.2031,-2.1719 0.85156,-0.5 1.7891,-0.75 2.8125,-0.75 1.7578,0 3.0977,0.54688 4.0156,1.6406 0.92578,1.0859 1.3906,2.6562 1.3906,4.7188 V -4e-4 h -4.9219 v -7.9844 -0.35938 c 0.0078,-0.13281 0.01563,-0.32031 0.01563,-0.5625 0,-1.082 -0.16406,-1.8633 -0.48438,-2.3438 -0.3125,-0.48828 -0.82422,-0.73438 -1.5312,-0.73438 -0.92969,0 -1.6484,0.38672 -2.1562,1.1562 -0.51172,0.76172 -0.77344,1.8672 -0.78125,3.3125 v 7.5156 h -4.9219 v -7.9844 c 0,-1.6953 -0.14844,-2.7852 -0.4375,-3.2656 -0.29297,-0.48828 -0.8125,-0.73438 -1.5625,-0.73438 -0.9375,0 -1.6641,0.38672 -2.1719,1.1562 -0.51172,0.76172 -0.76562,1.8594 -0.76562,3.2969 v 7.5312 h -4.9219 v -15.312 h 4.9219 v 2.2344 c 0.60156,-0.86328 1.2891,-1.5156 2.0625,-1.9531 0.78125,-0.4375 1.6406,-0.65625 2.5781,-0.65625 1.0625,0 2,0.25781 2.8125,0.76562 0.8125,0.51172 1.4258,1.2305 1.8438,2.1562 z"
         id="path985" />
    </symbol>
    <symbol
       id="p"
       overflow="visible">
      <path
         d="M 17.75,-9.3281 V 0 h -4.9219 v -7.1094 c 0,-1.3438 -0.03125,-2.2656 -0.09375,-2.7656 -0.0625,-0.5 -0.16797,-0.86719 -0.3125,-1.1094 -0.1875,-0.3125 -0.44922,-0.55469 -0.78125,-0.73438 -0.32422,-0.17578 -0.69531,-0.26562 -1.1094,-0.26562 -1.0234,0 -1.8242,0.39844 -2.4062,1.1875 -0.58594,0.78125 -0.875,1.8711 -0.875,3.2656 V -1e-4 H 2.3594 v -21.281 H 7.25 v 8.2031 c 0.73828,-0.88281 1.5195,-1.5391 2.3438,-1.9688 0.83203,-0.42578 1.75,-0.64062 2.75,-0.64062 1.7695,0 3.1133,0.54688 4.0312,1.6406 0.91406,1.0859 1.375,2.6562 1.375,4.7188 z"
         id="path988" />
    </symbol>
    <symbol
       id="o"
       overflow="visible">
      <path
         d="m 2.5781,-20.406 h 5.875 l 7.4219,14 v -14 h 4.9844 V 0 h -5.875 L 7.5625,-14 V 0 H 2.5781 Z"
         id="path991" />
    </symbol>
    <symbol
       id="n"
       overflow="visible">
      <path
         d="m 2.1875,-5.9688 v -9.3438 h 4.9219 v 1.5312 c 0,0.83594 -0.00781,1.875 -0.015625,3.125 -0.011719,1.25 -0.015625,2.0859 -0.015625,2.5 0,1.2422 0.03125,2.1328 0.09375,2.6719 0.070313,0.54297 0.17969,0.93359 0.32812,1.1719 0.20703,0.32422 0.47266,0.57422 0.79688,0.75 0.32031,0.16797 0.69141,0.25 1.1094,0.25 1.0195,0 1.8203,-0.39062 2.4062,-1.1719 0.58203,-0.78125 0.875,-1.8672 0.875,-3.2656 v -7.5625 h 4.8906 V -6e-4 H 12.6875 V -2.2194 C 11.94531,-1.32096 11.1641,-0.6608 10.3437,-0.235 9.51948,0.17906 8.6093,0.39 7.6093,0.39 5.8476,0.39 4.5038,-0.14906 3.5781,-1.235 2.64841,-2.317 2.1875,-3.8952 2.1875,-5.9694 Z"
         id="path994" />
    </symbol>
    <symbol
       id="m"
       overflow="visible">
      <path
         d="m 2.5781,-20.406 h 8.7344 c 2.5938,0 4.582,0.57812 5.9688,1.7344 1.3945,1.1484 2.0938,2.7891 2.0938,4.9219 0,2.1367 -0.69922,3.7812 -2.0938,4.9375 -1.3867,1.1562 -3.375,1.7344 -5.9688,1.7344 H 7.8281 V 3e-4 h -5.25 z m 5.25,3.8125 v 5.7031 H 10.75 c 1.0195,0 1.8047,-0.25 2.3594,-0.75 0.5625,-0.5 0.84375,-1.2031 0.84375,-2.1094 0,-0.91406 -0.28125,-1.6172 -0.84375,-2.1094 -0.55469,-0.48828 -1.3398,-0.73438 -2.3594,-0.73438 z"
         id="path997" />
    </symbol>
    <symbol
       id="l"
       overflow="visible">
      <path
         d="M 2.3594,-15.312 H 7.25 v 15.031 c 0,2.0508 -0.49609,3.6172 -1.4844,4.7031 -0.98047,1.082 -2.4062,1.625 -4.2812,1.625 H -0.9375 V 2.8283 h 0.85938 c 0.92578,0 1.5625,-0.21094 1.9062,-0.625 0.35156,-0.41797 0.53125,-1.2461 0.53125,-2.4844 z m 0,-5.9688 H 7.25 v 4 H 2.3594 Z"
         id="path1000" />
    </symbol>
    <symbol
       id="k"
       overflow="visible">
      <path
         d="m 14.719,-14.828 v 3.9844 c -0.65625,-0.45703 -1.3242,-0.79688 -2,-1.0156 -0.66797,-0.21875 -1.3594,-0.32812 -2.0781,-0.32812 -1.3672,0 -2.4336,0.40234 -3.2031,1.2031 -0.76172,0.79297 -1.1406,1.9062 -1.1406,3.3438 0,1.4297 0.37891,2.543 1.1406,3.3438 0.76953,0.79297 1.8359,1.1875 3.2031,1.1875 0.75781,0 1.4844,-0.10938 2.1719,-0.32812 0.6875,-0.22656 1.3203,-0.56641 1.9062,-1.0156 v 4 c -0.76172,0.28125 -1.5391,0.48828 -2.3281,0.625 -0.78125,0.14453 -1.5742,0.21875 -2.375,0.21875 -2.7617,0 -4.9219,-0.70703 -6.4844,-2.125 -1.5547,-1.4141 -2.3281,-3.3828 -2.3281,-5.9062 0,-2.5312 0.77344,-4.5039 2.3281,-5.9219 1.5625,-1.4141 3.7227,-2.125 6.4844,-2.125 0.80078,0 1.5938,0.07422 2.375,0.21875 0.78125,0.13672 1.5547,0.35156 2.3281,0.64062 z"
         id="path1003" />
    </symbol>
  </defs>
  <g
     id="g1096">
    <path
       d="m 278.95943,183.69753 c -3.32958,8.65396 -12.65001,13.97955 -21.969,10.65034 l -77.89009,-26.6208 v 106.49508 c 0,14.64275 -7.32325,28.61754 -19.30371,37.27126 v 153.74883 h 5.3264 c 9.31994,0.66391 16.6432,8.65396 15.97866,17.97183 -0.66406,8.65396 -7.32326,15.30714 -15.97866,15.9751 h -38.61218 c -9.31995,0 -16.64318,-6.6577 -17.30772,-15.9751 v -3.99276 c -0.66405,-1.99638 -0.66405,-3.99276 -0.66405,-5.32523 l -0.005,-161.74767 C 95.884313,304.16288 87.897961,289.5199 87.897961,274.20801 V 142.42329 c 0,-25.29321 19.973009,-45.257021 45.267099,-45.257021 11.98069,0 23.96616,4.661311 31.9537,13.310391 5.32642,5.32523 9.31994,12.64721 11.98071,19.96858 l 91.20346,31.28223 c 9.32471,3.32421 13.98742,12.64244 10.65736,21.96055 z"
       id="path1008"
       style="fill:#ffffff;stroke-width:1.18867" />
    <path
       d="m 90.558597,43.260282 c 0,23.960858 19.303713,43.260283 43.269903,43.260283 23.96618,0 43.26988,-19.299425 43.26988,-43.260283 C 177.09838,19.299425 157.79468,0 133.8285,0 110.53042,0 91.226702,19.299425 90.558597,43.260282 Z"
       id="path1010"
       style="fill:#ffffff;stroke-width:1.18867" />
    <path
       d="m 390.80162,299.50834 c -0.66403,0 -1.33276,-0.6639 -1.33276,-1.99638 0.66406,-3.99276 0.66406,-7.98553 0.66406,-12.6472 0,-0.6639 0.66405,-1.33246 1.33275,-1.33246 0.66406,0 1.99683,0.6639 1.99683,1.33246 0,3.99277 0,8.65396 -0.66403,12.6472 0,1.99638 -1.33278,2.6603 -1.99685,1.99638 z"
       id="path1012"
       style="fill:#ffffff;stroke-width:1.18867" />
    <path
       d="m 390.13592,274.21633 c -0.66406,0 -1.33279,-0.66391 -1.33279,-1.33247 -0.66403,-3.99276 -1.33275,-7.98553 -2.66088,-11.97805 v -0.6639 c 0,-0.66391 0.66405,-1.33247 1.33278,-1.33247 0.66403,0 1.99682,0 1.99682,0.6639 1.33275,3.99277 1.99682,7.98553 2.66089,12.6472 0,1.33247 -0.66406,1.99638 -1.99682,1.99638 0.66868,0 0.66868,0 0,0 0.66868,0 0,0.6639 0,0 z"
       id="path1014"
       style="fill:#ffffff;stroke-width:1.18867" />
    <path
       d="m 383.47863,250.25547 c -0.66405,0 -1.33276,-0.6639 -1.33276,-0.6639 -1.99681,-3.32885 -3.3296,-7.32162 -5.32642,-11.31426 v -1.33247 c 0,-0.6639 0.66405,-0.6639 0.66405,-1.33246 0.66406,-0.66391 1.33276,-0.66391 1.99683,0 v 1.33246 c 1.99682,3.32885 3.99367,7.32161 5.99049,11.31426 0.66405,0.6639 0,1.99638 -0.66406,1.99638 h -1.32813 z"
       id="path1016"
       style="fill:#ffffff;stroke-width:1.18867" />
    <path
       d="m 370.1641,228.95693 c -0.66407,0 -0.66407,0 -1.33279,-0.6639 -2.66089,-3.32885 -5.32641,-6.6577 -7.98729,-9.31788 v -1.33246 -0.66391 c 0.66405,-0.6639 1.33276,-0.6639 1.99682,0 2.66089,3.32885 5.99047,5.98915 7.98732,9.98179 0.66403,0.6639 0.66403,1.33247 0,1.99638 h -0.66406 z"
       id="path1018"
       style="fill:#ffffff;stroke-width:1.18867" />
    <path
       d="m 353.5209,210.98629 h -0.66405 c -2.66089,-2.6603 -5.99048,-5.32523 -9.31995,-7.98553 0,0 -0.66405,-0.6639 -0.66405,-1.33247 v -1.33246 c 0.66405,-0.66391 1.33276,-0.66391 1.99682,-0.66391 3.32961,2.6603 6.65918,4.66132 9.984,7.98553 0.66407,0.6639 0.66407,1.33247 0,1.99638 l -1.33275,1.33247 z"
       id="path1020"
       style="fill:#ffffff;stroke-width:1.18867" />
    <path
       d="m 436.07109,263.56706 c -0.66406,0 -1.33276,-0.66391 -1.33276,-1.33247 -0.66405,-3.99276 -1.99682,-7.32161 -2.66089,-10.65034 v -0.6639 c 0,-0.66391 0.66405,-1.33247 1.33277,-1.33247 0.66405,0 1.33275,0 1.99681,1.33247 0.66406,3.32884 1.99683,6.65769 2.66089,10.65034 v 1.33246 c -0.66405,0 -1.33275,0.66391 -1.99682,0.66391 0.66405,0 0,0 0,0 z m -6.65916,-22.62851 c -0.66406,0 -1.33278,-0.66391 -1.33278,-1.33247 -1.33276,-3.99276 -3.32958,-7.32161 -5.3264,-11.31426 v -0.6639 c 0,-0.6639 0.66405,-0.6639 0.66405,-1.33246 0.66405,-0.66391 1.99682,0 1.99682,0.6639 1.99683,3.99276 3.99364,7.98552 5.3264,11.97805 0,0.6639 0,1.99638 -0.66403,1.99638 0.005,0.005 -0.66405,0.005 -0.66405,0.005 z M 417.4312,218.97443 c -0.66406,0 -0.66406,0 -1.33277,-0.66391 -2.66088,-3.32884 -5.32642,-6.65769 -7.98731,-9.31787 h -0.66405 v -0.6639 -0.66391 c 0.66405,-0.6639 1.99685,-0.6639 1.99685,0 3.32957,2.6603 5.99046,5.98915 8.65588,9.98179 0.66406,0.66391 0.66406,1.33247 0,1.99638 -0.005,-0.66855 -0.005,-0.66855 -0.6687,-0.66855 z m -77.8901,-25.29321 c -0.66405,0 -1.33276,-0.6639 -1.33276,-1.33246 0,-0.66391 0,-1.99639 1.33276,-1.99639 3.99365,-1.33246 7.98729,-1.99638 12.65,-2.66029 0.66406,0 1.99682,0.6639 1.99682,1.33246 v 1.33247 c 0,0.6639 -0.66405,0.6639 -1.33275,0.6639 -3.99365,0.66391 -7.9873,1.33247 -11.9807,2.6603 h -1.33278 z m 60.58237,7.32161 c -0.66869,0.66855 -0.66869,0.66855 0,0 -3.99365,-1.99638 -7.98729,-3.99276 -11.31677,-5.32523 -0.66405,0 -1.33275,-1.33246 -0.66405,-1.99638 0,-0.6639 1.33278,-1.33246 1.99682,-0.6639 3.99367,1.33246 7.98731,3.32885 11.31679,5.98914 l 0.66405,0.66391 v 1.33246 c -0.66872,0.66855 -1.99684,0.66855 -1.99684,0 z m -35.95165,-10.6457 c -0.66405,0 -1.33276,-0.66391 -1.33276,-1.99638 0,-0.66391 0.66406,-1.33247 1.33276,-1.33247 3.99365,0 8.65589,0.6639 12.65001,1.33247 0.66406,0 0.66406,0 1.33276,0.6639 v 1.33247 c 0,0.6639 -1.33276,1.33246 -1.99683,1.33246 -3.99827,-0.66855 -7.99192,-0.66855 -11.98546,-1.33246 z"
       id="path1022"
       style="fill:#ffffff;stroke-width:1.18867" />
    <path
       d="m 415.43353,274.21633 c -0.66403,0 -1.33275,-0.66391 -1.33275,-1.33247 -0.66406,-3.99276 -0.66406,-7.98553 -1.99683,-11.97805 v -0.6639 c 0,-0.66391 0.66405,-1.33247 1.33275,-1.33247 0.66406,0 1.99683,0.6639 1.99683,1.33247 0.66405,3.99276 1.33278,8.65395 1.33278,12.64719 v 1.33247 c 0.66403,-0.005 0,-0.005 -1.33278,-0.005 z m -4.66234,-24.62525 c -0.66405,0 -1.33276,-0.66391 -1.33276,-1.33247 -1.33275,-3.99276 -3.3296,-7.32161 -5.32642,-11.31425 -0.66406,-0.66391 -0.66406,-1.33247 0,-1.99638 0.66405,-0.66391 1.33278,0 1.99682,0.6639 1.99685,3.99276 3.99367,7.32161 5.32642,11.97805 v 1.33247 c 0,0.6639 -0.66405,0.6639 -0.66405,0.6639 v 0.005 z m -12.65,-21.30092 c -0.66405,0 -0.66405,0 -1.33278,-0.6639 -2.66089,-3.32885 -5.3264,-5.98915 -8.65587,-8.65396 -0.66406,0 -0.66406,-0.6639 -0.66406,-1.33247 v -0.6639 c 0.66406,-0.6639 1.33278,-0.6639 1.99683,-0.6639 h 0.66405 c 3.3296,2.66029 5.99049,5.32523 8.6559,8.65395 0.66403,0.66391 0.66403,1.33247 0,1.99639 0.005,1.32783 -0.66405,1.32783 -0.66405,1.32783 z m -19.30373,-16.63948 c -3.99364,-1.99639 -7.98729,-3.99277 -11.31677,-5.98915 -0.66406,0 -0.66406,-0.6639 -0.66406,-1.99638 v -0.6639 c 0,-0.66391 1.33276,-1.33247 1.99683,-0.66391 3.99368,1.99638 7.98732,3.99277 11.3168,5.98915 0.66405,0 0.66405,0.6639 0.66405,1.33246 v 1.33247 c -0.66405,0.65927 -1.33278,1.3232 -1.99685,0.65927 z m -22.63353,-9.98179 c -3.99365,-1.33247 -7.98729,-1.99638 -11.98073,-3.32885 -0.66405,0 -1.33275,-0.6639 -1.33275,-1.99638 0,-0.66391 0.66405,-1.33247 1.99682,-1.33247 3.99367,0.66391 8.65588,1.99638 12.65002,3.32885 0.66405,0 0.66405,0.6639 0.66405,0.6639 v 1.33247 c 0,0.6639 -1.33278,1.33247 -1.99684,1.33247 z"
       id="path1024"
       style="fill:#ffffff;stroke-width:1.18867" />
    <path
       d="m 331.55191,189.68775 v 12.64719 c -25.29884,0 -50.5941,-6.65769 -73.23239,-18.63622 -27.96056,-15.30714 -117.83494,-59.23656 -156.44594,-69.21788 -32.621825,-8.65396 -42.606547,-3.32885 -45.267077,-0.66391 -1.332764,1.33247 -1.996828,2.6603 -1.996828,4.66132 15.310542,1.33247 26.626718,13.97955 26.626718,28.61754 v 119.80429 c 0,15.97509 -13.313358,28.61753 -29.293193,29.28668 H 39.293193 C 23.314547,296.18676 10.669294,282.87636 10,266.90008 V 147.09579 c 0,-15.9751 12.65001,-28.61754 29.293193,-29.28669 h 2.660888 c 0,-4.66131 1.996825,-9.98178 5.326413,-13.31039 9.319945,-9.981791 28.623898,-10.650342 57.917096,-3.32885 39.94601,10.65033 129.81683,54.57989 159.10883,70.55023 21.31516,11.97805 43.94871,17.30387 67.2456,17.96707 z"
       id="path1026"
       style="fill:#ffffff;stroke-width:1.18867" />
    <path
       d="m 487.99784,433.95538 c -1.99685,-1.99638 -4.66236,-2.6603 -7.32325,-1.33247 l -10.65271,7.98553 c -1.99682,1.33246 -2.66088,4.66131 -1.33275,6.65769 l -9.31995,6.6577 v -18.63622 c 2.66088,-0.66391 4.66234,-3.32885 4.66234,-5.98915 v -5.32523 c 0,-3.32885 -2.66089,-5.98914 -5.99047,-5.98914 -3.32961,0 -5.99049,2.66029 -5.99049,5.98914 v 5.32523 c 0,2.6603 1.99682,5.32523 4.66236,5.98915 V 448.598 l -5.99049,-3.99276 c 0.66405,-1.99638 0,-4.66131 -2.66089,-5.98914 l -11.31676,-6.6577 c -2.66088,-1.33246 -5.32641,-0.6639 -6.65916,1.99638 -1.33276,2.6603 -0.66406,5.32523 1.99682,6.6577 l 11.9807,6.65769 c 0.66405,0.66391 1.33278,0.66391 2.66089,0.66391 1.33278,0 1.99684,-0.66391 2.66088,-0.66391 l 1.99685,1.33247 c -1.99685,2.6603 -3.99367,7.98553 -6.65456,14.63799 -2.66089,-3.99276 -5.99046,-7.98552 -9.31994,-11.97805 3.3296,4.66131 5.99049,9.31787 7.98732,14.64275 -2.66089,7.98552 -4.66236,15.97509 -5.9905,23.96085 l -9.31994,-12.64719 c 0.66406,-10.65034 3.32961,-21.30092 7.32325,-31.28223 -4.66236,8.65395 -8.65587,17.30387 -10.6527,26.62079 l -4.66236,-5.32522 c 0.66405,0.6639 1.99683,3.99276 3.99365,7.98552 -0.66406,2.6603 -1.33276,5.98915 -1.99682,9.31788 l -10.65272,-10.65034 c 0.66406,-9.98179 3.99365,-19.29943 8.65589,-27.95434 -5.32641,7.32161 -9.31995,15.9751 -11.98073,24.62525 l -3.32958,-3.32885 c 0,0 1.33276,2.6603 2.66089,5.98915 -1.33276,3.99276 -1.99682,7.32161 -2.66089,11.31425 l -4.66234,-4.66131 c 1.99682,-7.32161 3.32958,-13.97955 3.32958,-15.30714 l -5.99046,12.6472 -8.6559,-9.31788 c 0.66405,1.33247 3.3296,7.32162 6.65918,13.3104 l -3.32958,6.6577 c -2.66089,-7.98553 -6.65918,-15.30714 -11.98072,-21.96412 0.66405,-5.32523 1.99683,-11.31426 3.99364,-16.63948 -1.99681,4.66131 -3.99364,9.31787 -5.99046,13.31039 -2.66089,-3.99276 -5.99047,-7.98552 -8.6559,-11.31425 3.3296,4.66131 5.99049,9.31787 7.98732,14.64275 -2.66089,7.98552 -4.66235,15.97509 -5.99048,23.96085 l -9.98402,-12.64719 c 0.66406,-9.31788 2.66089,-18.63623 5.99048,-27.95434 0.66405,-1.33246 0.66405,-1.99638 1.33275,-3.32885 -4.66234,8.65396 -8.65587,17.30388 -11.31676,26.6208 l -3.99365,-5.32523 c 0,0.66391 1.99683,3.99277 3.32959,7.98553 -0.66406,2.6603 -1.33276,5.98914 -1.33276,8.65396 l -9.98401,-9.98179 c 0.66405,-9.31787 3.32958,-18.63622 7.32323,-27.28994 -4.66234,7.32161 -8.65588,14.64274 -11.9807,23.29765 l -3.32958,-3.32885 2.66089,5.32523 c -1.33278,3.99277 -1.99685,7.98553 -2.66089,11.97805 l -3.99367,-3.99276 c 1.99682,-7.32161 3.32961,-14.64275 3.99367,-15.97509 l -6.65918,13.3104 -9.31996,-9.98179 c 0.66406,1.33246 3.3296,7.98552 6.6592,14.64274 l -2.66091,5.32523 c -2.66089,-7.32161 -6.65918,-14.64274 -11.31677,-21.30091 0.66405,-5.98915 2.66089,-11.97806 4.66236,-17.97184 -1.33276,2.6603 -3.99367,8.65396 -5.9905,15.30714 l -3.33886,-4.64265 v -7.98553 l 13.98268,-9.98179 c 1.99683,0.66391 4.66234,0.66391 5.99047,-0.6639 l 12.65,-9.31787 c 2.66089,-1.99639 3.32958,-5.98915 1.33276,-8.65396 -1.99682,-2.6603 -5.99047,-3.32885 -8.65587,-1.33247 l -12.65001,9.31787 c -2.6609,1.99639 -3.32961,5.32523 -1.99683,7.98553 l -10.65272,7.98553 v -22.62851 c 3.32961,-0.66391 5.32642,-3.99277 5.32642,-7.32161 l -0.005,-5.99378 c 0,-3.99277 -3.32958,-7.32162 -7.32324,-7.32162 -3.99365,0 -7.32324,2.6603 -7.32324,6.6577 v 0.6639 6.6577 c 0,3.32885 2.66089,5.98914 5.32641,6.65769 v 15.9751 l -7.32322,-4.66132 c 0.66405,-2.66029 -0.66406,-5.32522 -2.66089,-6.65769 L 281.6207,419.9769 c -2.66089,-1.33246 -6.65918,-0.6639 -7.98732,1.99638 -1.33276,2.6603 -0.66405,6.6577 1.99685,7.98553 l 13.98265,7.32161 c 0.66405,0.66391 1.99682,0.66391 2.66088,0.66391 1.33277,0 2.66089,-0.66391 3.32959,-1.33247 l 9.98401,5.98914 v 47.26327 l -8.65588,-11.31425 c 0.66405,-10.65034 3.32957,-20.63178 6.65916,-30.61903 -4.66234,7.98552 -7.98729,16.63948 -10.65271,25.2932 l -4.66233,-5.32523 c 0,0.66391 1.99682,3.99277 3.99365,7.98553 -0.66406,2.6603 -1.33277,5.98914 -1.99683,9.31787 l -9.984,-9.31787 c 0.66405,-9.98179 3.32958,-19.96857 7.98728,-28.61754 -5.3264,7.32161 -9.31994,15.9751 -12.64999,24.62525 l -3.32961,-3.32885 c 0,0 1.33277,2.6603 2.66091,5.98915 -1.33278,3.99276 -1.99685,7.32161 -2.66091,11.31425 l -4.66234,-4.66131 c 1.99682,-7.32161 3.32958,-13.97954 3.32958,-15.30714 l -5.31713,10.65034 -8.65589,-9.31787 c 0.66405,1.33246 3.3296,7.32161 6.65918,13.3104 l -3.32958,6.65769 c -2.66089,-7.32161 -6.65919,-13.97954 -10.65272,-20.63177 0.66405,-6.65769 1.99683,-13.3104 4.66236,-19.96857 -1.33276,2.6603 -3.99365,8.65396 -6.65918,16.63949 -2.66089,-3.99277 -5.99047,-7.98553 -9.31995,-11.97806 3.32959,4.66132 5.99048,9.31788 7.9873,14.64275 -2.66088,7.98553 -4.66235,15.97509 -5.99047,23.96086 l -9.31994,-11.97805 c 0.66405,-10.65034 3.32958,-21.30092 7.32324,-31.28223 -4.66236,8.65395 -8.65589,17.30387 -11.31678,26.62079 l -3.99366,-5.32523 c 0.66405,0.66391 1.99683,3.99277 3.32961,7.98553 -0.66406,2.6603 -1.33278,5.98914 -1.99684,9.31787 l -9.98401,-9.31787 c 0.66405,-9.98179 3.3296,-19.96857 7.98731,-29.28668 -5.32642,7.32161 -9.31994,15.97509 -12.65002,24.62525 l -3.32958,-3.32885 c 0,0 1.33276,2.6603 2.66088,5.98914 -1.33275,3.99277 -1.99682,7.32162 -2.66088,11.31426 l -15.97864,-17.30388 c 1.33277,2.6603 11.31677,24.62525 17.97583,30.61903 3.32958,3.32885 3.99365,-4.66131 5.3264,-15.97509 2.66089,5.98914 5.99047,11.31425 10.65271,15.97509 3.3296,3.32885 4.66237,-4.66131 5.99049,-15.30713 2.66089,5.32522 5.99047,10.65034 9.98401,15.30713 3.99365,3.99277 5.99046,-9.98179 7.98729,-24.62525 5.99047,15.30714 9.31994,29.28669 12.65001,24.62525 1.99683,-3.99276 3.99365,-7.98552 5.32641,-11.97805 1.99682,4.66131 4.66234,8.65396 8.65589,11.97805 3.32958,2.6603 3.99365,-5.32523 5.32642,-15.97509 2.66088,5.98914 5.99047,11.31425 10.6527,15.97509 3.32958,2.6603 4.66234,-4.66131 5.99047,-15.30713 2.66089,5.32522 5.99047,10.65034 9.984,15.30713 4.66235,3.99277 5.32643,-11.31425 7.98731,-27.95433 5.99048,15.97509 9.98402,32.61458 13.31337,27.95433 1.99682,-3.32885 3.99364,-7.32161 4.66234,-10.65034 1.99682,3.99277 4.66236,7.98553 7.98731,11.31426 3.32958,3.32885 3.99365,-5.32523 5.3264,-16.63949 2.66089,5.98915 6.65918,11.31426 10.65271,16.63949 3.32959,3.32885 4.66235,-4.66132 5.32642,-15.30714 2.66088,5.32523 5.99046,10.65034 9.98401,15.30714 4.66234,3.99276 5.32641,-10.65034 7.32323,-26.6208 5.99049,15.30714 9.98401,31.28223 13.31337,26.6208 1.99682,-3.99277 3.99365,-7.98553 5.3264,-11.97805 1.99682,4.66131 5.32641,8.65395 8.65588,11.97805 3.99365,3.32885 3.3296,-5.32523 4.66236,-17.97183 2.66089,6.65769 6.65917,12.64719 11.31678,17.97183 3.32957,3.32885 3.99364,-4.66132 5.3264,-15.9751 2.66089,5.98915 5.99048,10.65034 10.6527,15.9751 4.66235,3.99276 5.32643,-10.65034 7.32324,-26.6208 5.99048,15.30714 9.98401,31.28223 13.31336,26.6208 4.66235,-7.32161 9.98401,-30.61903 10.65272,-33.94336 l -9.98402,19.96857 v -26.6208 l 11.98072,-8.65396 c 1.33276,0.66391 3.99366,0.66391 5.32642,-0.6639 l 10.65271,-7.32161 C 489.33594,441.27759 490,439.2812 490,437.94873 c -1.33741,-2.00101 -1.33741,-3.32884 -2.00145,-3.99739 z m -178.41495,40.60034 v -15.97509 c 1.33276,1.99638 1.99683,3.99276 3.32958,6.65769 -1.33275,3.32885 -2.66551,6.6577 -3.32958,9.31787 z m 147.12575,9.31787 c -2.66089,-5.98914 -5.99047,-11.97805 -9.98401,-17.97183 0.66405,-5.98914 2.66089,-11.97805 4.66234,-17.30387 l 5.32642,3.32884 z"
       id="path1028"
       style="fill:#ffffff;stroke-width:1.18867" />
  </g>
</svg>
