<?xml version="1.0" encoding="UTF-8" standalone="no"?>
<svg
   width="500pt"
   height="500pt"
   version="1.1"
   viewBox="0 0 500 500"
   id="svg464"
   sodipodi:docname="lawn-care.svg"
   inkscape:version="1.2 (dc2aedaf03, 2022-05-15)"
   inkscape:export-filename="lawn-care.png"
   inkscape:export-xdpi="96"
   inkscape:export-ydpi="96"
   xmlns:inkscape="http://www.inkscape.org/namespaces/inkscape"
   xmlns:sodipodi="http://sodipodi.sourceforge.net/DTD/sodipodi-0.dtd"
   xmlns="http://www.w3.org/2000/svg"
   xmlns:svg="http://www.w3.org/2000/svg">
  <sodipodi:namedview
     id="namedview466"
     pagecolor="#ffffff"
     bordercolor="#000000"
     borderopacity="0.25"
     inkscape:showpageshadow="2"
     inkscape:pageopacity="0.0"
     inkscape:pagecheckerboard="0"
     inkscape:deskcolor="#d1d1d1"
     inkscape:document-units="pt"
     showgrid="false"
     inkscape:zoom="0.52758833"
     inkscape:cx="398.03761"
     inkscape:cy="325.06405"
     inkscape:window-width="1366"
     inkscape:window-height="699"
     inkscape:window-x="0"
     inkscape:window-y="0"
     inkscape:window-maximized="1"
     inkscape:current-layer="g462" />
  <defs
     id="defs420">
    <symbol
       id="n"
       overflow="visible">
      <path
         d="m 29.312,-1.75 c -1.5117,0.78125 -3.0898,1.3711 -4.7344,1.7656 -1.6367,0.40625 -3.3398,0.60938 -5.1094,0.60938 -5.3125,0 -9.5273,-1.4844 -12.641,-4.4531 -3.1055,-2.9688 -4.6562,-7 -4.6562,-12.094 0,-5.094 1.5508,-9.125 4.6562,-12.094 3.1133,-2.9688 7.3281,-4.4531 12.641,-4.4531 1.7695,0 3.4727,0.19922 5.1094,0.59375 1.6445,0.39844 3.2227,0.99219 4.7344,1.7812 v 6.5938 c -1.5312,-1.0391 -3.0391,-1.8008 -4.5156,-2.2812 -1.4805,-0.48828 -3.0391,-0.73438 -4.6719,-0.73438 -2.9375,0 -5.2461,0.94531 -6.9219,2.8281 -1.6797,1.875 -2.5156,4.4648 -2.5156,7.7656 0,3.293 0.83594,5.8828 2.5156,7.7656 1.6758,1.875 3.9844,2.8125 6.9219,2.8125 1.6328,0 3.1914,-0.23828 4.6719,-0.71875 1.4766,-0.48828 2.9844,-1.2539 4.5156,-2.2969 z"
         id="path378" />
    </symbol>
    <symbol
       id="i"
       overflow="visible">
      <path
         d="m 21.453,-17.406 c -0.67969,-0.3125 -1.3516,-0.53906 -2.0156,-0.6875 -0.65625,-0.15625 -1.3203,-0.23438 -1.9844,-0.23438 -1.9688,0 -3.4844,0.63281 -4.5469,1.8906 -1.0547,1.2617 -1.5781,3.0703 -1.5781,5.4219 V 6.2e-4 H 3.6718 v -23.922 h 7.6562 v 3.9219 c 0.97656,-1.5625 2.1016,-2.7031 3.375,-3.4219 1.2812,-0.71875 2.8125,-1.0781 4.5938,-1.0781 0.25,0 0.52344,0.01172 0.82812,0.03125 0.30078,0.02344 0.73438,0.07031 1.2969,0.14062 z"
         id="path381" />
    </symbol>
    <symbol
       id="a"
       overflow="visible">
      <path
         d="m 27.562,-12.031 v 2.1875 H 9.671 c 0.1875,1.793 0.83203,3.1367 1.9375,4.0312 1.1133,0.89844 2.6719,1.3438 4.6719,1.3438 1.6016,0 3.25,-0.23438 4.9375,-0.70312 1.6875,-0.47656 3.4219,-1.2031 5.2031,-2.1719 v 5.8906 c -1.8047,0.6875 -3.6094,1.2031 -5.4219,1.5469 -1.8125,0.35156 -3.6211,0.53125 -5.4219,0.53125 -4.3359,0 -7.7031,-1.0977 -10.109,-3.2969 -2.3984,-2.207 -3.5938,-5.2969 -3.5938,-9.2656 0,-3.9062 1.1758,-6.9727 3.5312,-9.2031 2.3633,-2.2383 5.6094,-3.3594 9.7344,-3.3594 3.7578,0 6.7695,1.1367 9.0312,3.4062 2.2578,2.2617 3.3906,5.2812 3.3906,9.0625 z m -7.8594,-2.5312 c 0,-1.457 -0.42969,-2.6289 -1.2812,-3.5156 -0.84375,-0.89453 -1.9492,-1.3438 -3.3125,-1.3438 -1.4922,0 -2.6992,0.41797 -3.625,1.25 -0.91797,0.83594 -1.4922,2.0391 -1.7188,3.6094 z"
         id="path384" />
    </symbol>
    <symbol
       id="h"
       overflow="visible">
      <path
         d="m 14.391,-10.766 c -1.5938,0 -2.793,0.27344 -3.5938,0.8125 -0.80469,0.54297 -1.2031,1.3398 -1.2031,2.3906 0,0.96875 0.32031,1.7305 0.96875,2.2812 0.64453,0.54297 1.5469,0.8125 2.7031,0.8125 1.4375,0 2.6445,-0.51562 3.625,-1.5469 0.98828,-1.0312 1.4844,-2.3203 1.4844,-3.875 v -0.875 z m 11.688,-2.8906 V -6e-4 h -7.7031 v -3.5469 c -1.0312,1.4492 -2.1875,2.5078 -3.4688,3.1719 -1.2813,0.6641 -2.8398,1 -4.6719,1 -2.4805,0 -4.4961,-0.72266 -6.0469,-2.1719 -1.543,-1.4453 -2.3125,-3.3203 -2.3125,-5.625 0,-2.8125 0.96094,-4.8672 2.8906,-6.1719 1.9375,-1.3125 4.9688,-1.9688 9.0938,-1.9688 h 4.5156 v -0.60938 c 0,-1.207 -0.48047,-2.0938 -1.4375,-2.6562 -0.94922,-0.5625 -2.4375,-0.84375 -4.4688,-0.84375 -1.6367,0 -3.1562,0.16797 -4.5625,0.5 -1.4062,0.32422 -2.7188,0.8125 -3.9375,1.4688 v -5.8281 c 1.6445,-0.40625 3.2891,-0.70703 4.9375,-0.90625 1.6562,-0.20703 3.3047,-0.3125 4.9531,-0.3125 4.3203,0 7.4375,0.85547 9.3438,2.5625 1.9141,1.6992 2.875,4.4609 2.875,8.2812 z"
         id="path387" />
    </symbol>
    <symbol
       id="g"
       overflow="visible">
      <path
         d="m 12.031,-30.719 v 6.7969 h 7.875 v 5.4688 h -7.875 v 10.141 c 0,1.1172 0.21875,1.8711 0.65625,2.2656 0.4375,0.38672 1.3125,0.57812 2.625,0.57812 h 3.9375 v 5.4688 h -6.5625 c -3.0234,0 -5.1641,-0.62891 -6.4219,-1.8906 -1.2617,-1.2578 -1.8906,-3.3984 -1.8906,-6.4219 v -10.141 h -3.7969 v -5.4688 h 3.7969 v -6.7969 z"
         id="path390" />
    </symbol>
    <symbol
       id="f"
       overflow="visible">
      <path
         d="m 19.953,-20.422 v -12.812 h 7.6875 V 0 H 19.953 v -3.4531 c -1.0547,1.4062 -2.2148,2.4375 -3.4844,3.0938 -1.2734,0.65625 -2.7422,0.98438 -4.4062,0.98438 -2.9492,0 -5.3711,-1.1719 -7.2656,-3.5156 -1.8867,-2.3438 -2.8281,-5.3594 -2.8281,-9.0469 0,-3.6875 0.94141,-6.7031 2.8281,-9.0469 1.8945,-2.3438 4.3164,-3.5156 7.2656,-3.5156 1.6562,0 3.1172,0.33594 4.3906,1 1.2812,0.65625 2.4453,1.6836 3.5,3.0781 z m -5.0469,15.484 c 1.6445,0 2.8945,-0.59766 3.75,-1.7969 0.86328,-1.1953 1.2969,-2.9297 1.2969,-5.2031 0,-2.2812 -0.43359,-4.0195 -1.2969,-5.2188 -0.85547,-1.1953 -2.1055,-1.7969 -3.75,-1.7969 -1.625,0 -2.8711,0.60156 -3.7344,1.7969 -0.85547,1.1992 -1.2812,2.9375 -1.2812,5.2188 0,2.2734 0.42578,4.0078 1.2812,5.2031 0.86328,1.1992 2.1094,1.7969 3.7344,1.7969 z"
         id="path393" />
    </symbol>
    <symbol
       id="e"
       overflow="visible">
      <path
         d="m 16.406,-4.9375 c 1.6328,0 2.8828,-0.59766 3.75,-1.7969 0.86328,-1.1953 1.2969,-2.9297 1.2969,-5.2031 0,-2.2812 -0.43359,-4.0195 -1.2969,-5.2188 -0.86719,-1.1953 -2.1172,-1.7969 -3.75,-1.7969 -1.6367,0 -2.8906,0.60547 -3.7656,1.8125 -0.875,1.1992 -1.3125,2.9336 -1.3125,5.2031 0,2.2617 0.4375,3.9961 1.3125,5.2031 0.875,1.1992 2.1289,1.7969 3.7656,1.7969 z m -5.0781,-15.484 c 1.0508,-1.3945 2.2188,-2.4219 3.5,-3.0781 1.2812,-0.66406 2.7539,-1 4.4219,-1 2.9453,0 5.3672,1.1719 7.2656,3.5156 1.8945,2.3438 2.8438,5.3594 2.8438,9.0469 0,3.6875 -0.94922,6.7031 -2.8438,9.0469 -1.8984,2.3438 -4.3203,3.5156 -7.2656,3.5156 -1.668,0 -3.1406,-0.33594 -4.4219,-1 -1.2813,-0.66406 -2.4492,-1.6914 -3.5,-3.0781 V 4e-4 H 3.6717 v -33.234 h 7.6562 z"
         id="path396" />
    </symbol>
    <symbol
       id="d"
       overflow="visible">
      <path
         d="m 0.53125,-23.922 h 7.6562 l 6.4219,16.234 5.4688,-16.234 h 7.6562 l -10.062,26.188 c -1.0117,2.6641 -2.1953,4.5234 -3.5469,5.5781 -1.3438,1.0625 -3.1211,1.5938 -5.3281,1.5938 H 4.37545 V 4.4223 h 2.3906 c 1.3008,0 2.2422,-0.21094 2.8281,-0.625 0.59375,-0.40625 1.0547,-1.1484 1.3906,-2.2188 l 0.20312,-0.65625 z"
         id="path399" />
    </symbol>
    <symbol
       id="c"
       overflow="visible">
      <path
         d="m 0.21875,-31.891 h 29.391 v 6.2188 h -10.578 V -2e-4 h -8.2188 v -25.672 h -10.594 z"
         id="path402" />
    </symbol>
    <symbol
       id="b"
       overflow="visible">
      <path
         d="m 15.062,-19.031 c -1.6992,0 -2.9961,0.60938 -3.8906,1.8281 -0.88672,1.2188 -1.3281,2.9766 -1.3281,5.2656 0,2.293 0.44141,4.0469 1.3281,5.2656 0.89453,1.2188 2.1914,1.8281 3.8906,1.8281 1.6641,0 2.9375,-0.60938 3.8125,-1.8281 0.88281,-1.2188 1.3281,-2.9727 1.3281,-5.2656 0,-2.2891 -0.44531,-4.0469 -1.3281,-5.2656 -0.875,-1.2188 -2.1484,-1.8281 -3.8125,-1.8281 z m 0,-5.4688 c 4.1133,0 7.3281,1.1094 9.6406,3.3281 2.3125,2.2187 3.4688,5.2969 3.4688,9.2344 0,3.9297 -1.1562,7.0078 -3.4688,9.2344 -2.3125,2.2188 -5.5273,3.3281 -9.6406,3.3281 -4.1367,0 -7.3711,-1.1094 -9.7031,-3.3281 -2.3242,-2.2266 -3.4844,-5.3047 -3.4844,-9.2344 0,-3.9375 1.1602,-7.0156 3.4844,-9.2344 2.332,-2.2188 5.5664,-3.3281 9.7031,-3.3281 z"
         id="path405" />
    </symbol>
    <symbol
       id="m"
       overflow="visible">
      <path
         d="m 2.4531,-31.891 h 26.812 v 4.9688 l -17.109,20.703 h 17.594 V -4e-4 H 1.9691 v -4.9844 l 17.109,-20.688 H 2.4531 Z"
         id="path408" />
    </symbol>
    <symbol
       id="l"
       overflow="visible">
      <path
         d="m 4.0156,-31.891 h 8.2188 V 0 H 4.0156 Z"
         id="path411" />
    </symbol>
    <symbol
       id="k"
       overflow="visible">
      <path
         d="m 23,-23.172 v 6.2344 c -1.0312,-0.71875 -2.0742,-1.2422 -3.125,-1.5781 -1.043,-0.34375 -2.125,-0.51562 -3.25,-0.51562 -2.1367,0 -3.8047,0.625 -5,1.875 -1.1875,1.2422 -1.7812,2.9805 -1.7812,5.2188 0,2.2305 0.59375,3.9688 1.7812,5.2188 1.1953,1.25 2.8633,1.875 5,1.875 1.1953,0 2.332,-0.17578 3.4062,-0.53125 1.0703,-0.36328 2.0625,-0.89453 2.9688,-1.5938 v 6.2656 c -1.1875,0.4375 -2.4023,0.76562 -3.6406,0.98438 -1.2305,0.22656 -2.4648,0.34375 -3.7031,0.34375 -4.3125,0 -7.6875,-1.1094 -10.125,-3.3281 -2.4375,-2.2187 -3.6562,-5.2969 -3.6562,-9.2344 0,-3.9453 1.2188,-7.0234 3.6562,-9.2344 2.4375,-2.2188 5.8125,-3.3281 10.125,-3.3281 1.25,0 2.4844,0.10938 3.7031,0.32812 1.2187,0.21874 2.4297,0.55469 3.6406,1 z"
         id="path414" />
    </symbol>
    <symbol
       id="j"
       overflow="visible">
      <path
         d="M 27.734,-14.562 V 0 h -7.7031 v -11.156 c 0,-2.0625 -0.04687,-3.4844 -0.14062,-4.2656 -0.08594,-0.78125 -0.24219,-1.3594 -0.46875,-1.7344 -0.30469,-0.5 -0.71094,-0.88281 -1.2188,-1.1562 -0.51172,-0.28125 -1.0938,-0.42188 -1.75,-0.42188 -1.5938,0 -2.8516,0.61719 -3.7656,1.8438 -0.90625,1.2305 -1.3594,2.9375 -1.3594,5.125 v 11.766 h -7.6562 v -23.922 h 7.6562 v 3.5 c 1.1445,-1.3945 2.3633,-2.4219 3.6562,-3.0781 1.3008,-0.66406 2.7383,-1 4.3125,-1 2.7578,0 4.8516,0.85156 6.2812,2.5469 1.4375,1.6875 2.1562,4.1523 2.1562,7.3906 z"
         id="path417" />
    </symbol>
  </defs>
  <g
     id="g462"
     style="fill:#b3b3b3"
     transform="scale(1.0035319,1)">
    <path
       d="m 490.44855,450.37117 h -58.81939 c 2.67944,-4.88818 4.32677,-10.48541 4.32677,-16.53999 h 18.7598 c 6.32161,0 12.29892,-2.92776 16.4039,-8.02264 4.1009,-5.10226 5.89414,-11.84358 4.9106,-18.47469 -5.09831,-34.73396 -24.19484,-52.31549 -35.13167,-59.71028 -2.18595,-1.48048 -3.72901,-3.96147 -4.31984,-6.85597 l -3.36407,-18.09474 c -1.84537,-9.51759 -8.46236,-16.9464 -16.80693,-19.82246 L 459.87658,56.640925 c 0.59775,-3.448254 2.79413,-6.283681 5.86281,-7.58325 l 19.4306,-8.262621 c 9.78648,-4.14974 14.8363,-15.720546 11.50712,-26.330708 C 494.91857,8.8673096 491.00193,4.2747719 485.94224,1.8523728 480.88912,-0.56218097 475.04366,-0.62125361 469.93868,1.7046936 L 447.26252,12.035094 C 432.50274,18.750801 422.0321,32.783795 419.23761,49.582748 L 377.38797,301.51032 h -51.98754 c -10.22776,0 -19.28115,6.49048 -23.0347,16.52487 l -6.75605,17.93879 c -1.93229,5.10225 -6.05747,8.94936 -11.02402,10.27843 l -62.15925,16.53241 c -14.73488,3.83595 -26.43683,15.31413 -31.29537,30.72467 l -3.2008,10.19713 c -2.20339,7.08857 -1.12251,14.62042 2.98879,20.65986 4.09394,6.02897 10.47153,9.47694 17.47775,9.47694 h 17.35943 c 0,6.05478 1.6508,11.65171 4.32678,16.53999 h -27.38523 c -6.96797,0 -13.2411,-1.96779 -18.15481,-5.69666 -7.93416,-6.01053 -7.30853,-11.97683 -5.90106,-16.49933 9.20996,-29.32492 -16.35498,-56.92307 -17.44573,-58.08182 -2.42927,-2.5807 -6.16522,-3.16773 -9.17793,-1.44719 -3.02697,1.72044 -4.6395,5.34222 -3.96183,8.91609 3.76031,19.98786 -0.62904,30.39954 -4.80285,35.56096 -5.77598,-20.32811 0.8167,-54.81445 4.358,-67.99446 0.9105,-3.41508 -0.32668,-7.07013 -3.08256,-9.08224 -2.75596,-2.01949 -6.42242,-1.92724 -9.0774,0.19937 -16.99467,13.53065 -27.46531,35.50142 -33.7073,54.14245 -4.194658,-42.21004 -2.154714,-109.05993 -0.55953,-138.00962 0.18767,-3.43351 -1.633354,-6.62337 -4.583892,-8.03003 -2.93319,-1.40665 -6.408454,-0.73469 -8.688256,1.69465 C 63.546958,271.93262 56.23557,325.98623 54.37614,366.61789 37.802297,339.21255 13.840554,320.76716 12.307636,319.60463 c -2.9818508,-2.25945 -7.0305159,-2.02685 -9.7446621,0.59442 -2.7107651,2.60651 -3.35364718,6.86334 -1.532651,10.23776 24.1948391,44.99066 18.5195721,101.65947 15.7642351,120.23151 -9.5222417,1.6798 -16.79270486,10.4958 -16.79270486,21.07383 v 19.98786 c 0,4.56324 3.47882546,8.26999 7.78469716,8.26999 L 490.45557,499.989 c 4.30587,0 7.7847,-3.70674 7.7847,-8.26999 v -33.07996 c 0,-4.56325 -3.47883,-8.26999 -7.7847,-8.26999 z M 288.04643,433.83118 h 85.63167 c 0,6.05477 1.6508,11.65172 4.32677,16.53999 h -94.29715 c 2.67945,-4.88818 4.32678,-10.48541 4.32678,-16.53999 z m 101.20106,0 c 0,-9.12278 6.98194,-16.53998 15.56939,-16.53998 8.58746,0 15.56939,7.4172 15.56939,16.53998 0,9.1228 -6.98193,16.53999 -15.56939,16.53999 -8.58745,0 -15.56939,-7.41719 -15.56939,-16.53999 z m 43.52491,-370.533431 9.34875,4.275255 -41.29004,233.932076 h -7.62135 L 432.78005,63.291511 Z M 208.41297,417.2912 c -1.95311,0 -3.729,-0.95989 -4.85845,-2.62126 -1.14342,-1.68726 -1.4492,-3.78793 -0.83408,-5.75572 l 3.19031,-10.16406 c 3.1,-9.83136 10.86032,-17.4596 20.27135,-19.91414 l 62.21531,-16.53998 c 2.46743,-0.66086 4.82721,-1.64662 7.03753,-2.8945 h 134.51957 c 0.84103,0.75317 1.65775,1.54692 2.59956,2.18196 8.71263,5.88871 23.93772,19.98786 28.09431,48.31281 0.38228,2.55481 -0.69159,4.33433 -1.36228,5.16879 -0.67074,0.83439 -2.14778,2.23366 -4.57002,2.23366 h -23.08986 c -5.40409,-9.8427 -15.33629,-16.53998 -26.81228,-16.53998 -11.47508,0 -21.40747,6.69718 -26.81227,16.53998 h -94.29715 c -5.40409,-9.8427 -15.3363,-16.53998 -26.81227,-16.53998 -11.4751,0 -21.40748,6.69718 -26.81229,16.53998 h -21.69661 z m 32.92883,16.53998 c 0,-9.12278 6.98194,-16.53998 15.56939,-16.53998 8.58746,0 15.5694,7.4172 15.5694,16.53998 0,9.1228 -6.98194,16.53999 -15.5694,16.53999 -8.58745,0 -15.56939,-7.41719 -15.56939,-16.53999 z"
       id="path422"
       style="fill:#ffffff;stroke-width:0.916987" />
    <path
       d="m 224.5055,235.37028 c -2.42927,-7.68295 -7.97936,-13.56467 -15.23576,-16.13357 -2.49876,-0.86761 -5.2686,-0.3655 -7.32598,1.38822 -1.1121,0.94146 -27.33363,23.63612 -33.71441,64.43223 -3.30152,21.11446 8.88985,42.21759 28.33807,49.10674 0.80975,0.28796 1.63336,0.42087 2.4605,0.42087 1.78977,0 3.56566,-0.66085 4.99057,-1.91977 2.0782,-1.8349 3.1,-4.68138 2.72464,-7.5168 -4.06263,-30.21903 5.76211,-53.06123 14.72865,-66.90565 4.38238,-6.78216 5.49448,-15.11849 3.05133,-22.87528 z"
       id="path424"
       style="fill:#ffffff;stroke-width:0.916987" />
    <path
       d="m 259.47881,275.23637 c 0.63945,0.17352 1.28585,0.25474 1.93229,0.25474 1.93924,0 3.82981,-0.76792 5.28595,-2.20038 0.84798,-0.84176 20.94928,-20.9226 23.89946,-54.44206 1.56388,-17.82065 -9.76868,-34.66781 -26.37456,-39.18275 -2.60649,-0.71994 -5.38673,0.0664 -7.32597,2.06013 -1.94618,1.99368 -2.78025,4.90292 -2.21032,7.70876 4.74724,23.29586 -1.71335,41.68927 -7.9654,53.00923 -3.38496,6.12131 -3.85408,13.37187 -1.29972,19.88863 2.53701,6.4572 7.6596,11.164 14.06761,12.89928 z"
       id="path426"
       style="fill:#ffffff;stroke-width:0.916987" />
    <path
       d="m 232.26351,175.59006 c 2.34928,-1.4214 3.8298,-4.02792 3.92366,-6.88924 0.79237,-23.81662 11.31228,-39.95114 19.98309,-49.28064 4.70215,-5.04318 6.84289,-11.95131 5.87679,-18.9397 -0.96611,-6.929782 -4.84111,-12.833131 -10.64858,-16.193103 -2.32153,-1.340226 -5.10525,-1.340226 -7.44066,0 -1.01823,0.58701 -25.14412,14.812255 -35.77135,46.518923 -5.65088,16.87268 1.4492,36.15546 16.49733,44.87251 1.16077,0.66824 2.44315,1.0079 3.729,1.0079 1.33105,0 2.66211,-0.36551 3.8541,-1.08172 z"
       id="path428"
       style="fill:#ffffff;stroke-width:0.916987" />
  </g>
</svg>
