<svg xmlns="http://www.w3.org/2000/svg" version="1.1" xmlns:xlink="http://www.w3.org/1999/xlink" xmlns:svgjs="http://svgjs.com/svgjs" width="512" height="512" x="0" y="0" viewBox="0 0 64 64" style="enable-background:new 0 0 512 512" xml:space="preserve" class=""><g transform="matrix(1,0,0,1,7.105427357601002e-15,1.4210854715202004e-14)"><path xmlns="http://www.w3.org/2000/svg" d="m27 32h18a1 1 0 0 0 1-1v-1a3 3 0 0 0 -3-3h-14a3 3 0 0 0 -3 3v1a1 1 0 0 0 1 1z" fill="#ffffff" data-original="#000000" class=""></path><path xmlns="http://www.w3.org/2000/svg" d="m53 46a6.956 6.956 0 0 1 2 .3v-4.3a4 4 0 0 0 -4-4h-30a4 4 0 0 0 -4 4v10a1 1 0 0 0 1 1h2a7 7 0 0 1 14 0h12a7.009 7.009 0 0 1 7-7z" fill="#ffffff" data-original="#000000" class=""></path><path xmlns="http://www.w3.org/2000/svg" d="m58 42h-1v5.264a6.993 6.993 0 0 1 3 5.736h2a1 1 0 0 0 1-1v-5a5.006 5.006 0 0 0 -5-5z" fill="#ffffff" data-original="#000000" class=""></path><path xmlns="http://www.w3.org/2000/svg" d="m53 48a5 5 0 1 0 5 5 5 5 0 0 0 -5-5zm0 6a1 1 0 1 1 1-1 1 1 0 0 1 -1 1z" fill="#ffffff" data-original="#000000" class=""></path><path xmlns="http://www.w3.org/2000/svg" d="m27 48a5 5 0 1 0 5 5 5 5 0 0 0 -5-5zm0 6a1 1 0 1 1 1-1 1 1 0 0 1 -1 1z" fill="#ffffff" data-original="#000000" class=""></path><path xmlns="http://www.w3.org/2000/svg" d="m28 34h16v2h-16z" fill="#ffffff" data-original="#000000" class=""></path><path xmlns="http://www.w3.org/2000/svg" d="m17.421 37.2a5.963 5.963 0 0 1 3.579-1.2h.244l-7.307-28.5a2 2 0 0 0 -1.937-1.5h-9a2 2 0 0 0 0 4h7.448z" fill="#ffffff" data-original="#000000" class=""></path><path xmlns="http://www.w3.org/2000/svg" d="m10 30a4 4 0 0 0 -4 4h5a1 1 0 0 1 0 2h-5v3h5a1 1 0 0 1 0 2h-5v3h5a1 1 0 0 1 0 2h-5a4 4 0 0 0 4 4h5v-8a5.959 5.959 0 0 1 .817-3.009l-2.305-8.991z" fill="#ffffff" data-original="#000000" class=""></path></g></svg>
