<svg xmlns="http://www.w3.org/2000/svg" version="1.1" xmlns:xlink="http://www.w3.org/1999/xlink" xmlns:svgjs="http://svgjs.com/svgjs" width="512" height="512" x="0" y="0" viewBox="0 0 448.217 448.217" style="enable-background:new 0 0 512 512" xml:space="preserve" class=""><g><g xmlns="http://www.w3.org/2000/svg"><path d="m365.799 327.277c1.576.897 4.907-.803 8.519-6.634 6.228-10.037 16.031-27.286 20.324-38.335-4.243.542-10.437-.71-13.985-3.286-3.29 8.265-8.329 17.843-11.183 23.344-7.656 14.729-6.171 23.492-3.675 24.911z" fill="#ffffff" data-original="#000000" class=""></path><path d="m228.513 101.502c-5.42-48.319-52.943-41.586-99.756-28.727 29.128-1.617 60.25 2.134 79.248 20.444.795.767.819 2.033.052 2.828-.768.797-2.035.817-2.828.053-22.405-21.595-63.246-21.82-96.244-17.41 16.921 5.65 38.943 10.512 59.836 22.959 21.007 12.357 35.365 29.836 44.162 51.441 3.737-17.793 8.915-35.03 15.53-51.588z" fill="#ffffff" data-original="#000000" class=""></path><path d="m387.626 277.769c7.729 1.931 12.958-.186 13.872-7.974-7.469.518-14.709.113-19.541-4.007-3.001 6.694-1.064 10.298 5.669 11.981z" fill="#ffffff" data-original="#000000" class=""></path><path d="m402.315 265.72c5.325-10.7 19.859-41.875 17.591-58.94-3.461-26.019-23.563-17.32-29.458 8.324-5.204 22.594-6.693 42.503-6.956 46.561 3.622 4.224 10.163 4.747 18.823 4.055z" fill="#ffffff" data-original="#000000" class=""></path><path d="m339.925 386.521c5.748-1.336 11.723-.854 17.056 1.285 28.241-13.883 51.215-44.541 65.563-67.934 1.168-1.903.966-4.314-.503-6.001l-2.321-2.65c-11.145 18.851-29.771 44.857-47.837 62.724-.785.777-2.052.77-2.828-.016-.777-.785-.77-2.052.016-2.828 17.67-17.476 35.923-42.9 46.959-61.481-11.493-.831-21.257-2.902-27.954-4.688-3.821 6.986-7.701 13.539-10.358 17.82-4.432 7.154-8.358 8.747-10.974 8.747-1.375 0-2.387-.439-2.921-.743-5.222-2.969-6.176-14.306 2.102-30.231 1.29-2.486 1.063-2.047 1.609-3.102-8.036-3.896-14.788-8.586-20.093-14.001-12.684 24.992-22.639 57.462-23.886 85.464 7.891 3.443 13.994 9.779 16.37 17.635z" fill="#ffffff" data-original="#000000" class=""></path><path d="m236.28 290.221c-1.39-14.754-3.818-45.975-3.412-80.668.022-1.836 2.381-2.682 3.543-1.243 3.843 4.679 9.271 8.395 15.697 10.745 28.183 10.304 61.13-19.787 97.369 23.887-3.205-49.445-45.915-60.797-71.77-63.103-1.101-.099-1.912-1.069-1.814-2.17.099-1.101 1.065-1.908 2.17-1.814 38.059 3.394 68.455 21.288 74.48 58.717 7.785-73.254-108.597-93.051-121.429-50.271-.317 1.06-1.435 1.662-2.49 1.342-1.059-.317-1.659-1.433-1.342-2.49 1.437-4.79 3.966-8.84 7.316-12.207 3.362-40.496 11.365-70.664 23.796-89.664.631-.964 1.98-1.195 2.905-.48 49.983 39.077 156.769-26.394 111.11-80.802 2.378 7.111 2.345 12.95-.081 17.687-10.707 20.905-64.211 12.786-95.929 27.761-.996.472-2.189.045-2.662-.955-.472-.998-.044-2.19.955-2.662 31.459-14.854 84.878-8.009 94.075-25.967 1.622-3.165 1.85-7.087.671-11.847-5.715 18.555-41.697 18.526-61.097 17.511-27.722-1.44-47.901 4.803-56.82 17.575-5.078 7.272-6.447 16.703-2.274 26.772.246.593.178 1.253-.097 1.745-37.472 66.412-46.159 142.75-34.541 216.596 7.67.751 15.009 2.828 21.671 6.005z" fill="#ffffff" data-original="#000000" class=""></path><path d="m389.521 368.862c-8.576 8.368-18.002 15.784-28.142 21.184 7.375 4.649 11.097 11.846 11.097 19.076 0 1.104-.896 2-2 2s-2-.896-2-2c0-13.065-14.839-22.756-29.388-18.232-1.121.351-2.305-.343-2.55-1.493-2.392-11.209-13.579-19.345-26.603-19.345-14.922 0-27.063 10.645-27.063 23.728 0 1.104-.896 2-2 2s-2-.896-2-2c0-18.787 20.629-32.239 40.749-26.332.507-9.408 2.037-20.02 4.403-30.513-2.5 1.008-4.877 2.381-7.093 4.116-1.157.905-2.865.295-3.185-1.137-5.168-23.053-31.707-32.74-49.732-18.747-1.04.808-2.549.403-3.063-.788-7.788-18.05-26.72-30.735-48.231-32.318-37.909-2.819-67.445 27.694-60.547 60.069.206.965-.323 1.936-1.245 2.286-.92.354-1.961-.022-2.45-.88-13.761-24.176-51.753-25.863-68.142-2.938-6.213 8.692-7.87 19.248-4.548 28.961.408 1.192-.376 2.46-1.623 2.629-15.508 2.11-27.591 14.784-29.382 30.819-.074.66-.47 1.24-1.058 1.549-14.744 7.747-24.13 22.046-24.873 37.66h410.506c-.336-48.043-13.035-73.307-39.837-79.354z" fill="#ffffff" data-original="#000000" class=""></path></g></g></svg>
