<svg xmlns="http://www.w3.org/2000/svg" version="1.1" xmlns:xlink="http://www.w3.org/1999/xlink" xmlns:svgjs="http://svgjs.com/svgjs" width="512" height="512" x="0" y="0" viewBox="0 0 59 59" style="enable-background:new 0 0 512 512" xml:space="preserve" class=""><g><g xmlns="http://www.w3.org/2000/svg" id="Page-1" fill="none" fill-rule="evenodd"><g id="015---Hedge-Trimming" fill="rgb(0,0,0)" fill-rule="nonzero"><path id="Shape" d="m26.86 29.92 2.14-2.12 2.83 2.83c.1862606.1847442.4376601.2888954.7.29.265803.0015368.5212812-.1028135.71-.29.1893127-.1877666.2957983-.4433625.2957983-.71s-.1064856-.5222334-.2957983-.71l-2.84-2.82 2.12-2.12 2.82 2.82c.1887188.1871865.444197.2915368.71.29.4018897-.0016616.7637369-.2437563.918621-.6146054.154884-.3708491.0727076-.7983888-.208621-1.0853946l-2.83-2.83 2.12-2.12 2.83 2.83c.2536586.2518722.622421.3492866.967378.2555479.3449571-.0937386.6137016-.3643891.705-.71.0912985-.3456109-.0087194-.7136757-.262378-.9655479l-2.82-2.82 2.12-2.12 2.82 2.8c.1877666.1893127.4433625.2957983.71.2957983s.5222334-.1064856.71-.2957983c.3877236-.3900375.3877236-1.0199625 0-1.41l-2.83-2.81s-.08-.05-.11-.08c.3630113-.6047512.5596576-1.2947382.57-2-.00857-1.4247545-.774351-2.7373988-2.0103912-3.4460619-1.2360402-.70866303-2.7557278-.706354-3.9896088.0060619-.0210321-.0380814-.0444105-.0748188-.07-.11l-2.88-2.86c-.3900375-.38772359-1.0199625-.38772359-1.41 0-.1893127.1877666-.2957983.44336246-.2957983.71s.1064856.5222334.2957983.71l2.83 2.83-2.12 2.12-2.81-2.83c-.1877666-.1893127-.4433625-.2957983-.71-.2957983s-.5222334.1064856-.71.2957983c-.3877236.3900375-.3877236 1.0199625 0 1.41l2.83 2.83-2.12 2.12-2.83-2.83c-.3900375-.3877236-1.0199625-.3877236-1.41 0-.1893127.1877666-.2957983.4433625-.2957983.71s.1064856.5222334.2957983.71l2.83 2.83-2.13 2.12-2.84-2.83c-.1877666-.1893127-.4433625-.2957983-.71-.2957983s-.5222334.1064856-.71.2957983c-.3877236.3900375-.3877236 1.0199625 0 1.41l2.83 2.83-2.12 2.12-2.83-2.82c-.3900375-.3877236-1.0199625-.3877236-1.41 0-.3877236.3900375-.3877236 1.0199625 0 1.41l2.82 2.83-2.78 2.83-2.83-2.83c-.1877666-.1893127-.4433625-.2957983-.71-.2957983s-.5222334.1064856-.71.2957983l-10.64 10.6c-.18931265.1877666-.29579832.4433625-.29579832.71s.10648567.5222334.29579832.71l4.47 4.47-.07.06-3.82 4.57c-.4435832.5418173-.68722184 1.2197683-.69 1.92 0 1.811494 1.46850602 3.28 3.28 3.28h14.22c.8284271 0 1.5.6715729 1.5 1.5s-.6715729 1.5-1.5 1.5h-14.5c-1.65685425 0-3 1.3431458-3 3 0 .5522847.44771525 1 1 1s1-.4477153 1-1 .44771525-1 1-1h14.5c1.9329966 0 3.5-1.5670034 3.5-3.5s-1.5670034-3.5-3.5-3.5h-14.22c-.70243364-.010726-1.26927396-.5775664-1.28-1.28-.00045651-.2336522.08091885-.4600879.23-.64l3.77-4.5 3.31 3.31c.3900375.3877236 1.0199625.3877236 1.41 0l9.2-9.19c.8973562-.907772 1.1220398-2.2839592.56-3.43l3-2.95 2.82 2.82c.1870714.1908556.4427541.2988906.71.3.2637693-.003757.5153695-.1115857.7-.3.3877236-.3900375.3877236-1.0199625 0-1.41zm-14.15 12.73c-.3900375.3877236-1.0199625.3877236-1.41 0l-5-4.95c-.18931265-.1877666-.29579832-.4433625-.29579832-.71s.10648567-.5222334.29579832-.71c.39003745-.3877236 1.01996255-.3877236 1.41 0l5 4.95c.1893127.1877666.2957983.4433625.2957983.71s-.1064856.5222334-.2957983.71zm2.83-2.83c-.3900375.3877236-1.0199625.3877236-1.41 0l-5-5c-.3397768-.3967603-.31693227-.9881942.05243678-1.3575632.36936905-.3693691.96080292-.3922136 1.35756322-.0524368l4.95 4.95c.2085813.1820616.3323485.44245.3418245.7191498.009476.2766999-.0961872.5449455-.2918245.7408502zm7.78-11c-.265803.0015368-.5212812-.1028135-.71-.29-.1893127-.1877666-.2957983-.4433625-.2957983-.71s.1064856-.5222334.2957983-.71l13.44-13.45c.3967603-.3397768.9881942-.3169323 1.3575632.0524368.3693691.369369.3922136.9608029.0524368 1.3575632l-13.46 13.44c-.1813033.1799761-.4246119.28374-.68.29z" fill="#ffffff" data-original="#000000" class=""></path><path id="Shape" d="m7.62 24c-1.17105808-.6516785-2.63230397-.4475938-3.58.5l-3.16 3.11c-.94759384.947696-1.15167846 2.4089419-.5 3.58l1.42 2.57 8.39-8.39z" fill="#ffffff" data-original="#000000" class=""></path><path id="Shape" d="m43.88 0c-2.57 0-5 2.32-7.08 5.78h.1c5.5228475 0 10 4.4771525 10 10 .0035055 2.6498308-1.038613 5.1940376-2.9 7.08l-13.91 13.87c1.79 7.1 7.29 12.27 13.79 12.27 8 0 14.41-7.74 14.41-17.29s-6.45-31.71-14.41-31.71zm-5.88 39c-.8031236.0252479-1.5809429-.2827077-2.1491176-.8508824s-.8761303-1.345994-.8508824-2.1491176c0-.5522847.4477153-1 1-1s1 .4477153 1 1c-.0286468.2729969.0674658.5443384.2615637.7384363s.4654394.2902105.7384363.2615637c.5522847 0 1 .4477153 1 1s-.4477153 1-1 1zm2-10c0-.5522847.4477153-1 1-1s1 .4477153 1 1c-.0286468.2729969.0674658.5443384.2615637.7384363s.4654394.2902105.7384363.2615637c.5522847 0 1 .4477153 1 1s-.4477153 1-1 1c-.8031236.0252479-1.5809429-.2827077-2.1491176-.8508824s-.8761303-1.345994-.8508824-2.1491176zm5 10c-.8031236.0252479-1.5809429-.2827077-2.1491176-.8508824s-.8761303-1.345994-.8508824-2.1491176c0-.5522847.4477153-1 1-1s1 .4477153 1 1c-.0286468.2729969.0674658.5443384.2615637.7384363s.4654394.2902105.7384363.2615637c.5522847 0 1 .4477153 1 1s-.4477153 1-1 1z" fill="#ffffff" data-original="#000000" class=""></path><path id="Shape" d="m41 50.69v5.31c0 1.1045695.8954305 2 2 2h2c1.1045695 0 2-.8954305 2-2v-5.35c-1.0235875.2332791-2.0701667.3506838-3.12.35-.9684781.0028743-1.9343184-.1010877-2.88-.31z" fill="#ffffff" data-original="#000000" class=""></path></g></g></g></svg>
